<?xml version="1.0" standalone="no"?>
<!DOCTYPE svg PUBLIC "-//W3C//DTD SVG 1.1//EN" "http://www.w3.org/Graphics/SVG/1.1/DTD/svg11.dtd" >
<svg>
<metadata>
Created by FontForge 20110222 at Sat Jan 14 01:16:07 2012
 By www-data
Copyright (c) 2011, wmk69 (wmk69@o2.pl)
with Reserved Font Names 'CursiveSerif' and 'Cursive Serif'.

This Font Software is licensed under the SIL Open Font License, Version 1.1.
This license is available with a FAQ at:
http://scripts.sil.org/OFL
</metadata>
<defs>
<font id="CursiveSerif" horiz-adv-x="1250" >
  <font-face 
    font-family="Cursive Serif"
    font-weight="400"
    font-style="italic"
    font-stretch="normal"
    units-per-em="2048"
    panose-1="2 1 5 2 2 4 4 13 2 4"
    ascent="1638"
    descent="-410"
    x-height="1120"
    cap-height="1510"
    bbox="-65 -430 2314 1950"
    underline-thickness="120"
    underline-position="-79"
    slope="-13"
    unicode-range="U+0020-2122"
  />
    <missing-glyph />
    <glyph glyph-name="space" unicode=" " horiz-adv-x="797" 
 />
    <glyph glyph-name="exclam" unicode="!" horiz-adv-x="659" 
d="M222 80q0 15 4 32q13 55 60 94q46 38 100 38q55 0 83 -38q20 -27 20 -61q0 -16 -4 -33q-13 -56 -59 -94q-47 -38 -101 -38q-55 0 -83 38q-20 27 -20 62zM353 316l166 1060q2 12 4 22q10 55 59 94q47 38 101 38t83 -38q20 -26 20 -61q0 -16 -4 -33l-6 -22l-325 -1060h-98z
" />
    <glyph glyph-name="quotedbl" unicode="&#x22;" horiz-adv-x="830" 
d="M814 1550h174l-134 -449h-114zM558 1550h174l-134 -449h-114z" />
    <glyph glyph-name="numbersign" unicode="#" horiz-adv-x="1354" 
d="M724 1230h131l-55 -240h212l55 240h130l-55 -240h241l-31 -131h-241l-48 -211h241l-31 -131h-241l-55 -240h-130l55 240h-212l-55 -240h-131l55 240h-240l31 131h240l48 211h-240l31 131h240zM769 859l-48 -211h212l48 211h-212z" />
    <glyph glyph-name="dollar" unicode="$" horiz-adv-x="1346" 
d="M630 -300l-116 -2l66 284q-194 14 -286 147q-70 101 -70 223q0 50 12 105q15 65 62 103q48 39 101 39q51 0 83 -39q22 -27 22 -60q0 -15 -4 -30q-16 -60 -59 -90q-46 -32 -88 -32q27 -225 254 -248l164 706l-70 36q-181 93 -181 265q0 41 10 86q28 127 168 237
q102 80 239 96l66 284h115l-65 -282q155 -15 227 -140q37 -64 37 -137q0 -35 -9 -75q-14 -63 -66 -106q-50 -42 -104 -42q-52 0 -83 38q-21 26 -21 60q0 15 4 31q14 57 60 92t92 35q-30 127 -160 147l-111 -483l216 -108q201 -100 201 -287q0 -52 -14 -115
q-42 -190 -248 -332q-159 -110 -379 -124zM815 999l99 428q-59 -13 -108 -51q-78 -61 -99 -160q-4 -19 -4 -38q0 -123 106 -176zM874 753l-151 -652q164 13 266 101q103 89 135 222q7 29 7 56q0 141 -126 206z" />
    <glyph glyph-name="percent" unicode="%" horiz-adv-x="1671" 
d="M1297 582q-64 0 -121 -67t-90 -211q-14 -61 -14 -110q0 -39 9 -69q23 -76 92 -76q70 0 124 70q61 79 92 206q15 62 15 109q0 52 -17 85q-31 63 -90 63zM1162 -20q-127 0 -198 103q-40 58 -40 139q0 45 12 96q34 145 141 246q112 106 245 106q129 0 196 -109
q38 -62 38 -144q0 -46 -12 -100q-29 -129 -140 -232q-114 -105 -242 -105zM1578 1530l122 -64l-1254 -1486l-117 70zM709 909q71 0 124 70q63 83 92 206q14 59 14 106q0 52 -17 88q-30 63 -89 63q-63 0 -121 -67q-57 -66 -90 -211q-14 -61 -14 -111q0 -37 8 -68
q20 -76 93 -76zM857 1530q127 0 196 -109q40 -63 40 -145q0 -46 -13 -99q-30 -130 -141 -232q-114 -105 -241 -105q-126 0 -198 103q-40 57 -40 139q0 44 12 96q33 144 141 246q112 106 244 106z" />
    <glyph glyph-name="ampersand" unicode="&#x26;" horiz-adv-x="1530" 
d="M1348 0h-208l-52 115q-178 -135 -401 -135q-222 0 -348 120q-100 95 -100 235q0 51 13 107q43 184 204 301q143 104 325 121q-107 30 -174 100q-61 64 -61 156q0 35 9 75q35 155 207 264q113 71 271 71q190 0 272 -142q36 -62 36 -136q0 -36 -9 -76q-14 -63 -65 -106
q-50 -42 -104 -42q-52 0 -83 38q-21 26 -21 60q0 15 4 31q14 57 59 92t93 35q-39 148 -199 148q-82 0 -166 -63q-82 -61 -107 -177q-9 -41 -9 -77q0 -65 32 -116q48 -75 179 -128l238 -513q122 146 202 279q-51 0 -83 39q-21 26 -21 61q0 15 4 32q12 52 60 91q47 38 100 38
q50 0 84 -39q27 -31 27 -75q0 -20 -5 -42q-12 -55 -55 -123q-136 -220 -266 -363zM1046 207l-270 590q-82 -39 -148 -95q-116 -98 -152 -264q-11 -50 -11 -94q0 -91 49 -162q65 -92 197 -92q190 0 335 117z" />
    <glyph glyph-name="quotesingle" unicode="'" horiz-adv-x="574" 
d="M558 1550h174l-134 -449h-114z" />
    <glyph glyph-name="parenleft" unicode="(" horiz-adv-x="654" 
d="M963 1810l50 -39q-166 -227 -272 -460q-115 -253 -185 -556q-72 -312 -72 -556q0 -231 60 -460l-68 -39q-86 171 -129 469q-16 110 -16 220q0 183 43 366q70 300 244 586q178 295 345 469z" />
    <glyph glyph-name="parenright" unicode=")" horiz-adv-x="654" 
d="M527 1810q88 -176 129 -469q15 -106 15 -215q0 -180 -43 -371q-69 -301 -243 -586q-181 -297 -345 -469l-50 39q167 229 272 460q109 238 184 556q73 310 73 556q0 232 -60 460z" />
    <glyph glyph-name="asterisk" unicode="*" horiz-adv-x="1389" 
d="M1043 1550h14l18 -319l164 69l-101 -141l297 -94l-3 -14l-341 -92l35 -148l-125 69l-167 -319h-14l-19 319l-164 -69l102 141l-298 94l4 14l340 92l-35 148l125 -69z" />
    <glyph glyph-name="plus" unicode="+" horiz-adv-x="1233" 
d="M813 1172h150l-79 -342h341l-35 -150h-341l-79 -342h-150l79 342h-342l35 150h342z" />
    <glyph glyph-name="comma" unicode="," horiz-adv-x="705" 
d="M127 -231q94 47 168 123q36 37 63 88q-56 0 -84 36q-20 26 -20 60q0 15 4 34q15 58 60 96q46 39 103 39q56 0 85 -35q24 -29 24 -76q0 -26 -7 -57q-19 -83 -81 -155q-100 -116 -219 -154q-44 -14 -100 -14z" />
    <glyph glyph-name="hyphen" unicode="-" horiz-adv-x="1233" 
d="M392 830h833l-35 -150h-833z" />
    <glyph glyph-name="period" unicode="." horiz-adv-x="659" 
d="M222 80q0 15 4 32q13 55 60 94q46 38 100 38q55 0 83 -38q20 -27 20 -61q0 -16 -4 -33q-13 -56 -59 -94q-47 -38 -101 -38q-55 0 -83 38q-20 27 -20 62z" />
    <glyph glyph-name="slash" unicode="/" horiz-adv-x="1065" 
d="M1301 1660l122 -64l-1314 -1746l-117 70z" />
    <glyph glyph-name="zero" unicode="0" horiz-adv-x="1464" 
d="M1061 1425q-137 0 -266 -131q-168 -171 -253 -539q-41 -178 -41 -311q0 -139 45 -228q66 -131 206 -131q154 0 272 130q161 177 246 540q43 184 43 318q0 138 -46 221q-73 131 -206 131zM727 -20q-209 0 -328 154q-109 141 -109 357q0 122 34 264q92 396 362 621
q185 154 399 154q215 0 329 -154q106 -143 106 -360q0 -118 -32 -261q-93 -403 -359 -616q-198 -159 -402 -159z" />
    <glyph glyph-name="one" unicode="1" horiz-adv-x="700" 
d="M80 0q2 9 3 15q181 45 224 234l173 746q9 41 9 76q0 124 -125 159q2 7 3 15q258 93 426 305h15l-301 -1301q-9 -40 -9 -74q0 -125 125 -160l-3 -15h-540z" />
    <glyph glyph-name="two" unicode="2" horiz-adv-x="1319" 
d="M160 -20h-15q74 320 461 598l319 229q178 129 218 295q10 42 10 81q0 64 -27 116q-58 115 -212 115q-222 0 -358 -252q51 0 80 -32q21 -23 21 -58q0 -15 -4 -32q-13 -53 -59 -90q-49 -39 -101 -39t-83 39q-20 25 -20 63q0 18 5 40q42 187 207 333q162 144 367 144
q195 0 313 -124q84 -88 84 -216q0 -50 -13 -106q-49 -224 -270 -356l-412 -247q-201 -121 -288 -245q94 71 155 71q30 0 87 -21l274 -100q44 -16 90 -16q113 0 258 148h15q-139 -338 -351 -338q-31 0 -147 36l-250 77q-57 18 -88 18q-105 0 -266 -131z" />
    <glyph glyph-name="three" unicode="3" horiz-adv-x="1300" 
d="M318 560q48 39 101 39q51 0 83 -39q22 -27 22 -60q0 -15 -4 -30q-16 -60 -59 -90q-46 -32 -95 -32q20 -252 269 -252q128 0 239 84q128 97 165 257q12 52 12 99q0 95 -51 167q-77 109 -246 153l3 15q152 52 238 128q86 75 112 193q9 40 9 73q0 63 -34 104q-54 63 -136 63
q-160 0 -269 -148q45 0 77 -35q21 -23 21 -58q0 -15 -4 -34q-14 -54 -59 -91q-46 -38 -101 -38q-53 0 -85 42q-20 26 -20 64q0 19 5 42q32 123 124 212q146 142 338 142q158 0 239 -71q93 -82 93 -195q0 -33 -8 -69q-32 -144 -158 -231q-101 -70 -222 -100q176 -17 271 -121
q76 -83 76 -201q0 -47 -12 -100q-49 -215 -245 -342q-186 -120 -398 -120q-203 0 -300 144q-67 99 -67 219q0 56 14 114q16 66 62 103z" />
    <glyph glyph-name="four" unicode="4" horiz-adv-x="1177" 
d="M557 0l3 15q181 45 224 234l26 111h-722l4 15l1178 1175h15l-247 -1068h154l-83 -122h-99l-26 -111q-9 -40 -9 -74q0 -125 125 -160l-3 -15h-540zM838 482l148 640l-638 -640h490z" />
    <glyph glyph-name="five" unicode="5" horiz-adv-x="1300" 
d="M318 560q48 39 101 39q51 0 83 -39q22 -27 22 -60q0 -15 -4 -30q-16 -60 -59 -90q-46 -32 -95 -32q20 -252 269 -252q129 0 239 84q129 99 165 257q15 66 15 120q0 88 -40 148q-74 108 -201 108q-128 0 -254 -133q-61 121 -128 166l304 664h694q-154 -206 -356 -206
q-203 0 -288 114q-90 -284 -181 -567q130 77 284 77q204 0 318 -161q61 -86 61 -202q0 -58 -15 -123q-50 -215 -245 -342q-186 -120 -398 -120q-203 0 -300 144q-67 99 -67 219q0 56 14 114q16 66 62 103z" />
    <glyph glyph-name="six" unicode="6" horiz-adv-x="1346" 
d="M1341 1138q-46 -38 -101 -38t-83 38q-20 27 -20 62q0 14 3 29q10 51 59 91q32 26 73 35q-74 71 -215 71q-142 0 -268 -131q-154 -160 -219 -441q166 181 363 181q201 0 314 -149q81 -107 81 -250q0 -64 -17 -140q-52 -218 -244 -379q-163 -137 -346 -137q-207 0 -322 154
q-108 145 -108 361q0 120 33 260q89 377 360 616q180 159 395 159q142 0 232 -62q103 -71 103 -173q0 -25 -6 -53q-13 -59 -67 -104zM891 923q-149 0 -272 -141q-72 -83 -109 -237q-16 -67 -16 -128q0 -113 52 -201q76 -132 212 -132q114 0 210 124q79 102 123 291
q24 103 24 180q0 76 -23 126q-54 118 -201 118z" />
    <glyph glyph-name="seven" unicode="7" horiz-adv-x="1019" 
d="M285 1192q139 338 351 338q50 0 148 -36l209 -77q49 -18 89 -18q105 0 265 131h15q-58 -221 -339 -522q-188 -201 -261 -276q-165 -169 -194 -298q-8 -34 -8 -70q0 -85 56 -158q22 -28 22 -63q0 -15 -4 -31q-15 -59 -55 -94q-44 -38 -105 -38q-56 0 -85 38
q-60 79 -60 198q0 63 17 138q42 186 224 360t380 366q97 94 174 194q-80 -61 -152 -61q-38 0 -87 21l-234 100q-37 16 -90 16q-97 0 -261 -158h-15z" />
    <glyph glyph-name="eight" unicode="8" horiz-adv-x="1271" 
d="M908 914q107 55 172 138q46 58 64 134q5 21 5 41q0 59 -39 107q-51 64 -153 64q-104 0 -181 -65q-74 -62 -94 -147q-5 -21 -5 -40q0 -115 120 -176zM283 110q-78 90 -78 210q0 47 12 100q31 141 141 256q106 110 249 180q-127 91 -127 224q0 45 12 95q33 138 172 246
q140 109 316 109q164 0 258 -109q61 -71 61 -163q0 -35 -9 -73q-30 -129 -108 -205q-66 -63 -154 -121l63 -34q178 -96 178 -262q0 -50 -13 -108q-48 -212 -229 -339q-195 -136 -391 -136q-240 0 -353 130zM738 796q-147 -58 -255 -160q-104 -100 -130 -208q-9 -37 -9 -71
q0 -91 65 -151q94 -88 236 -88q151 0 285 111q100 82 128 207q8 36 8 68q0 119 -80 161z" />
    <glyph glyph-name="nine" unicode="9" horiz-adv-x="1346" 
d="M354 372q46 38 101 38q53 0 83 -38q21 -27 21 -61q0 -11 -4 -30q-10 -49 -59 -91q-31 -26 -73 -35q73 -71 215 -71t268 131q153 159 218 441q-165 -181 -362 -181q-200 0 -314 149q-81 106 -81 250q0 66 17 140q50 216 244 379q163 137 345 137q209 0 323 -154
q106 -143 106 -360q0 -117 -32 -261q-85 -375 -359 -616q-181 -159 -396 -159q-141 0 -231 62q-103 71 -103 173q0 25 6 53q13 59 67 104zM936 1426q-114 0 -209 -124q-81 -106 -124 -291q-23 -99 -23 -175.5t23 -130.5q50 -118 201 -118q149 0 272 141q75 86 109 237
q15 67 15 128q0 111 -51 201q-75 132 -213 132z" />
    <glyph glyph-name="colon" unicode=":" horiz-adv-x="659" 
d="M434 850q48 39 101 39q54 0 83 -39q20 -27 20 -61q0 -15 -4 -32q-13 -55 -59 -93q-47 -39 -101 -39q-53 0 -83 39q-20 25 -20 61q0 17 4 32q15 58 59 93zM285 206q46 38 101 38t83 -38q20 -27 20 -61q0 -16 -4 -33q-13 -56 -59 -94q-47 -38 -101 -38q-56 0 -83 38
q-20 28 -20 62q0 15 4 32q13 56 59 94z" />
    <glyph glyph-name="semicolon" unicode=";" horiz-adv-x="659" 
d="M92 -232q102 51 169 123q35 38 63 88q-57 0 -85 36q-20 26 -20 59q0 14 5 35q14 59 59 96q47 39 103 39q57 0 86 -35q24 -29 24 -76q0 -26 -7 -57q-19 -83 -81 -155q-100 -116 -219 -154q-44 -14 -100 -14zM434 850q48 39 101 39q54 0 83 -39q20 -27 20 -61q0 -15 -4 -32
q-13 -55 -59 -93q-47 -39 -101 -39q-53 0 -83 39q-20 26 -20 61q0 13 4 32q10 53 59 93z" />
    <glyph glyph-name="less" unicode="&#x3c;" horiz-adv-x="1356" 
d="M327 765l1067 534l38 -105l-820 -411l622 -373l-103 -164l-808 504z" />
    <glyph glyph-name="equal" unicode="=" horiz-adv-x="1233" 
d="M426 980h833l-34 -150h-833zM357 680h833l-35 -150h-833z" />
    <glyph glyph-name="greater" unicode="&#x3e;" horiz-adv-x="1356" 
d="M1386 780l-1067 -534l-38 105l817 409l-622 373l106 166l808 -504z" />
    <glyph glyph-name="question" unicode="?" horiz-adv-x="1251" 
d="M592 382q37 158 187 282l131 108q190 156 231 330q10 42 10 81q0 58 -27 116q-54 115 -212 115q-222 0 -358 -252q51 0 80 -32q21 -23 21 -58q0 -15 -4 -32q-13 -53 -59 -90q-49 -39 -101 -39t-83 39q-20 25 -20 63q0 18 5 40q42 187 207 333q162 144 367 144
q195 0 313 -124q84 -88 84 -216q0 -50 -13 -106q-41 -188 -279 -349l-228 -154q-134 -91 -159 -199h-93zM518 206q46 38 100 38q55 0 83 -38q20 -27 20 -61q0 -16 -4 -33q-13 -56 -59 -94q-47 -38 -101 -38q-55 0 -83 38q-20 27 -20 62q0 15 4 32q13 55 60 94z" />
    <glyph glyph-name="at" unicode="@" horiz-adv-x="1369" 
d="M1059 606q-139 -45 -234 -104q-97 -60 -126 -184q-10 -43 -10 -78q0 -60 29 -98q46 -60 116 -60q103 0 142 168zM762 -430q-340 0 -458 154q-107 140 -107 357q0 121 33 264q97 418 361 621q201 154 403 154q154 0 236 -72q80 -70 80 -180q0 -38 -10 -83l-124 -535
q-7 -31 -7 -54q0 -69 63 -69q76 0 139 123h15q-24 -104 -81 -176q-75 -94 -192 -94q-86 0 -125 59q-72 -59 -155 -59q-158 0 -238 71q-93 83 -93 195q0 33 8 69q34 152 158 231q163 103 402 106l30 134q12 48 12 85q0 55 -27 88q-50 58 -143 58q-137 0 -291 -181
q-161 -189 -237 -502q-35 -144 -35 -260q0 -155 62 -262q100 -172 321 -227v-15z" />
    <glyph glyph-name="A" unicode="A" horiz-adv-x="1510" 
d="M68 250h15q4 -166 62 -166q59 0 162 166l654 1055q-13 53 -62 53q-80 0 -153 -118h-15q29 124 87 196q76 94 184 94q112 0 136 -151l182 -1129q16 -98 84 -98q69 0 143 118h15q-36 -142 -78 -197q-71 -93 -156 -93q-151 0 -194 266l-48 295h-483l-178 -291
q-68 -111 -121 -172q-85 -98 -160 -98q-100 0 -100 100q0 56 24 170zM664 642h405l-81 532z" />
    <glyph glyph-name="B" unicode="B" horiz-adv-x="1405" 
d="M152 250q6 -123 82 -123q84 0 113 123l198 860h200l-198 -860q-15 -65 -37 -113q104 -57 190 -57q208 0 349 148q98 103 127 234q9 41 9 78q0 106 -77 185q-83 84 -272 116q129 40 219 107q105 78 136 210q11 47 11 85q0 66 -32 108q-60 79 -199 79q-386 0 -697 -387
l-11 10q310 477 739 477q241 0 337 -132q54 -74 54 -158q0 -30 -7 -62q-28 -126 -160 -234q-61 -50 -135 -79q96 -18 177 -75q125 -88 125 -236q0 -45 -12 -97q-45 -197 -263 -351q-178 -126 -441 -126q-158 0 -240 58q-66 -58 -152 -58q-117 0 -148 94q-12 36 -12 80t12 96
h15z" />
    <glyph glyph-name="C" unicode="C" horiz-adv-x="1389" 
d="M1368 429q-91 -173 -241 -295q-189 -154 -399 -154q-212 0 -329 154q-108 142 -108 358q0 120 33 263q93 403 362 621q190 154 407 154q203 0 310 -149q81 -113 81 -215q0 -28 -6 -56q-14 -65 -62 -104q-47 -38 -102 -38q-52 0 -83 38q-21 26 -21 61q0 7 4 30
q10 52 59 91q32 26 73 35q-79 201 -272 201q-160 0 -287 -136q-157 -168 -240 -531q-46 -202 -46 -338q0 -120 36 -189q73 -140 252 -140q145 0 276 124q112 106 164 215h139z" />
    <glyph glyph-name="D" unicode="D" horiz-adv-x="1544" 
d="M152 250q6 -123 82 -123q84 0 113 123l198 860h200l-198 -860q-15 -65 -37 -113q104 -57 190 -57q218 0 431 239q133 149 196 427q33 145 33 260q0 104 -28 185q-87 239 -345 239q-402 0 -713 -387l-11 10q310 477 739 477q346 0 504 -256q72 -117 72 -284
q0 -108 -30 -236q-76 -325 -282 -518q-273 -256 -589 -256q-159 0 -240 58q-66 -58 -152 -58q-117 0 -148 94q-12 36 -12 80t12 96h15z" />
    <glyph glyph-name="E" unicode="E" horiz-adv-x="1323" 
d="M1322 429q-91 -173 -241 -295q-189 -154 -400 -154q-212 0 -342 120q-100 92 -100 233q0 51 13 109q45 185 204 301q143 104 325 121q-107 30 -174 100q-61 64 -61 156q0 35 9 75q35 155 207 264q113 71 271 71q190 0 272 -142q36 -62 36 -136q0 -36 -9 -76
q-14 -63 -65 -106q-50 -42 -104 -42q-52 0 -83 38q-21 26 -21 60q0 15 4 31q14 57 59 92t93 35q-39 148 -199 148q-77 0 -166 -63q-81 -57 -107 -177q-9 -41 -9 -77q0 -65 32 -116q48 -75 179 -128l-3 -15q-193 -45 -318 -153q-126 -109 -161 -266q-10 -45 -10 -86
q0 -95 57 -171q70 -90 219 -90q159 0 290 124q112 106 164 215h139z" />
    <glyph glyph-name="F" unicode="F" horiz-adv-x="1211" 
d="M103 250q6 -123 82 -123q84 0 113 123l164 710q63 274 240 434q151 136 364 136q169 0 257 -138q54 -85 54 -167q0 -29 -6 -55q-17 -68 -62 -104q-48 -38 -102 -38q-51 0 -83 38q-21 25 -21 60q0 12 4 31q10 50 59 91q31 26 73 35q-36 141 -200 141q-137 0 -239 -124
q-83 -101 -138 -340l-26 -110h356l-28 -122h-356l-110 -478q-27 -116 -73 -173q-78 -97 -189 -97q-117 0 -148 94q-12 36 -12 80t12 96h15z" />
    <glyph glyph-name="G" unicode="G" horiz-adv-x="1439" 
d="M1459 648q-66 -284 -332 -514q-178 -154 -400 -154q-212 0 -328 154q-108 143 -108 359q0 120 33 262q94 404 362 621q190 154 407 154q203 0 310 -149q81 -113 81 -215q0 -28 -6 -56q-14 -65 -62 -104q-47 -38 -102 -38q-52 0 -83 38q-21 26 -21 61q0 8 4 30
q10 52 59 91q32 26 73 35q-79 201 -272 201q-160 0 -287 -136q-157 -168 -240 -531q-46 -201 -46 -337q0 -120 36 -190q75 -145 215 -145q170 0 286 121q93 97 116 202q6 27 6 51q0 141 -225 174q1 5 4 15h520z" />
    <glyph glyph-name="H" unicode="H" horiz-adv-x="1427" 
d="M103 250q6 -123 82 -123q84 0 113 123l233 1010q7 31 7 54q0 69 -63 69q-76 0 -139 -123h-15q24 103 82 176q75 94 191 94q112 0 144 -97q8 -24 8 -59q0 -47 -15 -113l-138 -599h547l138 599q26 113 73 172q77 97 188 97q118 0 149 -94q12 -36 12 -80t-12 -96h-15
q-7 123 -83 123q-84 0 -112 -123l-233 -1010q-7 -32 -7 -55q0 -68 62 -68q76 0 140 123h15q-24 -104 -82 -176q-76 -94 -192 -94q-108 0 -143 97q-9 25 -9 60q0 44 16 113l67 291h-547l-67 -291q-27 -114 -73 -173q-76 -97 -189 -97q-117 0 -148 94q-12 36 -12 80t12 96h15z
" />
    <glyph glyph-name="I" unicode="I" horiz-adv-x="680" 
d="M103 250q6 -123 82 -123q84 0 113 123l291 1260h200l-291 -1260q-27 -114 -73 -173q-76 -97 -189 -97q-117 0 -148 94q-12 36 -12 80t12 96h15z" />
    <glyph glyph-name="J" unicode="J" horiz-adv-x="1066" 
d="M115 292q46 38 101 38q56 0 84 -37q20 -26 20 -60q0 -16 -4 -33q-13 -54 -70 -105q35 -20 107 -20q129 0 243 97q87 74 121 222l200 866q7 31 7 54q0 69 -63 69q-76 0 -139 -123h-15q24 103 82 176q75 94 191 94q112 0 144 -97q8 -24 8 -59q0 -47 -15 -114l-173 -750
q-58 -249 -241 -402q-153 -128 -370 -128q-124 0 -213 63q-68 48 -68 119q0 17 4 36q11 55 59 94z" />
    <glyph glyph-name="K" unicode="K" horiz-adv-x="1486" 
d="M103 250q6 -123 82 -123q85 0 113 123l233 1010q7 30 7 54q0 69 -63 69q-76 0 -139 -123h-15q24 103 82 176q75 94 191 94q106 0 144 -97q9 -23 9 -58q0 -44 -16 -114l-153 -665q533 270 767 673q-51 0 -83 39q-22 27 -22 62q0 15 4 31q14 54 60 91q48 38 101 38
q49 0 84 -39q25 -28 25 -71q0 -21 -6 -45q-14 -57 -52 -124q-220 -388 -579 -590q211 0 263 -201l83 -321q24 -92 110 -92q54 0 109 47q35 30 60 64h10q-39 -118 -128 -200q-88 -81 -163 -81q-124 0 -162 137l-101 368q-44 162 -197 162q-101 0 -221 -112l-42 -182
q-26 -113 -73 -173q-76 -97 -189 -97q-117 0 -148 94q-12 36 -12 80t12 96h15z" />
    <glyph glyph-name="L" unicode="L" horiz-adv-x="1231" 
d="M103 250q6 -123 82 -123q85 0 113 123l164 710q63 274 240 434q151 136 364 136q169 0 257 -138q54 -85 54 -167q0 -27 -6 -55q-17 -68 -62 -104q-48 -38 -102 -38q-51 0 -83 38q-21 25 -21 60q0 9 4 31q10 50 59 91q31 26 73 35q-36 141 -200 141q-127 0 -239 -124
q-80 -89 -138 -340l-164 -710q-14 -61 -35 -109q140 -4 258 -36q114 -31 173 -31q87 0 140 43q-26 38 -26 76q0 11 4 29q11 51 60 93q44 37 99 37t84 -38q21 -28 21 -63q0 -12 -4 -30q-21 -100 -151 -169q-134 -72 -257 -72q-59 0 -220 35q-92 20 -255 24q-67 -59 -153 -59
q-117 0 -148 94q-12 36 -12 80t12 96h15z" />
    <glyph glyph-name="M" unicode="M" horiz-adv-x="1995" 
d="M83 250q20 -166 89 -166q73 0 135 166l386 1026q-16 91 -69 91q-75 0 -155 -127h-15q33 135 87 196q84 94 176 94q115 0 148 -166l205 -1046l728 1093q79 119 178 119q91 0 110 -100q5 -27 5 -58q0 -49 -14 -112h-15q-21 167 -95 167q-42 0 -82 -72l-88 -1105
q-1 -13 -1 -15q0 -83 82 -83t154 118h15q-29 -125 -86 -196q-75 -94 -182 -94q-173 0 -173 217q0 28 2 49l75 795l-716 -1081h-15l-217 1118l-317 -828q-44 -115 -92 -176q-75 -94 -156 -94q-93 0 -112 100q-5 26 -5 55q0 55 15 115h15z" />
    <glyph glyph-name="N" unicode="N" horiz-adv-x="1515" 
d="M103 250q20 -167 98 -167q77 0 116 167l246 1054q-25 70 -73 70q-84 0 -159 -134h-15q29 123 87 196q75 94 173 94t168 -142l495 -1007l204 879q28 120 67 174q69 96 163 96q93 0 112 -100q5 -27 5 -58q0 -48 -14 -112h-15q-21 167 -94 167t-112 -167l-300 -1300h-15
l-598 1204l-213 -914q-28 -119 -67 -174q-68 -96 -173 -96q-92 0 -111 100q-5 26 -5 55q0 55 15 115h15z" />
    <glyph glyph-name="glyph50" unicode="O" horiz-adv-x="1464" 
d="M1061 1425q-137 0 -266 -131q-168 -171 -253 -539q-41 -178 -41 -311q0 -139 45 -228q66 -131 206 -131q154 0 272 130q161 177 246 540q43 184 43 318q0 138 -46 221q-73 131 -206 131zM727 -20q-209 0 -328 154q-109 141 -109 357q0 122 34 264q92 396 362 621
q185 154 399 154q215 0 329 -154q106 -143 106 -360q0 -118 -32 -261q-93 -403 -359 -616q-198 -159 -402 -159z" />
    <glyph glyph-name="P" unicode="P" horiz-adv-x="1455" 
d="M137 250h15q6 -123 82 -123q84 0 113 123l198 860h200l-97 -423q65 -129 217 -129q148 0 269 114q116 109 165 322q14 61 14 116q0 90 -39 167q-79 153 -303 153q-386 0 -697 -387l-11 10q310 477 739 477q294 0 430 -147q99 -107 99 -259q0 -61 -16 -128
q-48 -201 -194 -342q-203 -196 -438 -196q-160 0 -267 92l-69 -300q-27 -114 -73 -173q-76 -97 -189 -97q-116 0 -148 94q-12 36 -12 80t12 96z" />
    <glyph glyph-name="Q" unicode="Q" horiz-adv-x="1424" 
d="M1038 268q141 178 212 487q42 182 42 315q0 138 -45 224q-70 131 -206 131q-144 0 -266 -131q-169 -181 -253 -539q-42 -179 -42 -312q0 -139 46 -227q36 -70 94 -102q45 90 105 154q74 78 172 78q82 0 141 -78zM958 42q-103 -62 -251 -62q-210 0 -328 154
q-108 141 -108 358q0 119 33 263q91 397 362 621q187 154 399 154q214 0 329 -154q107 -143 107 -359q0 -121 -33 -262q-94 -400 -365 -619q50 -120 110 -120q58 0 115 61q43 46 60 81h10q-27 -123 -96 -199q-72 -80 -153 -80q-135 0 -191 163zM924 149q-36 60 -107 60
q-72 0 -146 -82q-15 -17 -21 -26q33 -16 82 -16q100 0 192 64z" />
    <glyph glyph-name="R" unicode="R" horiz-adv-x="1506" 
d="M152 250q6 -123 82 -123q85 0 113 123l198 860h200l-97 -423q65 -129 217 -129q148 0 269 114q116 109 165 322q14 61 14 116q0 90 -39 167q-79 153 -303 153q-386 0 -697 -387l-11 10q310 477 739 477q294 0 430 -147q99 -107 99 -259q0 -61 -16 -128
q-48 -200 -194 -342q-144 -140 -306 -180q143 -36 172 -150l47 -186q25 -98 107 -98q71 0 118 46q37 36 63 72h10q-39 -117 -128 -200q-87 -81 -168 -81q-142 0 -178 137l-75 282q-36 136 -142 164q-132 10 -225 90l-69 -300q-26 -113 -73 -173q-76 -97 -189 -97
q-117 0 -148 94q-12 36 -12 80t12 96h15z" />
    <glyph glyph-name="S" unicode="S" horiz-adv-x="1346" 
d="M298 560q48 39 101 39q51 0 83 -39q22 -27 22 -60q0 -15 -4 -30q-16 -60 -59 -90q-46 -32 -88 -32q30 -250 306 -250q209 0 330 104q103 88 135 222q7 29 7 56q0 141 -126 206l-304 156q-181 93 -181 265q0 45 10 86q28 128 168 237q127 100 310 100q190 0 272 -142
q37 -64 37 -137q0 -36 -9 -75q-14 -63 -66 -106q-50 -42 -104 -42q-52 0 -83 38q-21 26 -21 60q0 15 4 31q14 57 60 92t92 35q-35 150 -209 150q-99 0 -175 -58q-78 -59 -99 -160q-4 -19 -4 -38q0 -123 106 -176l326 -162q201 -100 201 -287q0 -52 -14 -115
q-40 -189 -248 -332q-182 -126 -445 -126q-232 0 -335 149q-70 101 -70 223q0 50 12 105q15 65 62 103z" />
    <glyph glyph-name="T" unicode="T" horiz-adv-x="1296" 
d="M253 1053q309 477 739 477h299q143 0 222 -61q61 -47 61 -115q0 -20 -5 -42q-12 -53 -60 -94q-45 -38 -101 -38q-52 0 -83 37q-21 25 -21 60q0 15 4 33q15 55 71 105q-55 5 -111 5h-309q-392 0 -695 -377zM422 250q6 -123 82 -123q84 0 113 123l198 860h200l-198 -860
q-27 -114 -73 -173q-76 -97 -189 -97q-117 0 -148 94q-12 36 -12 80t12 96h15z" />
    <glyph glyph-name="U" unicode="U" horiz-adv-x="1480" 
d="M1589 1510l-291 -1260q-7 -32 -7 -55q0 -68 62 -68q76 0 140 123h15q-24 -104 -82 -176q-76 -94 -192 -94q-113 0 -143 97q-8 26 -8 61q0 25 4 56q-34 -43 -71 -78q-141 -136 -341 -136q-246 0 -319 189q-24 62 -24 148q0 80 26 193l173 750q7 31 7 54q0 69 -63 69
q-76 0 -139 -123h-15q24 103 82 176q75 94 191 94q112 0 144 -97q8 -24 8 -59q0 -47 -15 -113l-174 -753q-25 -106 -25 -180q0 -27 4 -52q21 -154 218 -154q164 0 291 150q79 93 113 238l231 1000h200z" />
    <glyph glyph-name="V" unicode="V" horiz-adv-x="1442" 
d="M321 1260q24 103 82 176q75 94 191 94q112 0 144 -97q8 -24 8 -59q0 -47 -15 -113l-174 -753q-26 -113 -26 -181q0 -30 5 -51q37 -154 198 -154q232 0 428 291q125 185 182 434q35 152 35 270q0 99 -24 175q-36 -20 -75 -20q-55 0 -83 37q-20 26 -20 60q0 8 4 31
q11 53 58 92q46 38 100 38q92 0 129 -100q46 -125 46 -280q0 -138 -37 -304q-63 -275 -193 -461q-283 -405 -589 -405q-266 0 -339 189q-24 62 -24 148q0 80 26 193l173 750q7 31 7 54q0 69 -63 69q-76 0 -139 -123h-15z" />
    <glyph glyph-name="W" unicode="W" horiz-adv-x="2242" 
d="M321 1260q24 103 82 176q75 94 191 94q112 0 144 -97q8 -24 8 -59q0 -47 -15 -113l-174 -753q-25 -106 -25 -180q0 -26 4 -52q21 -154 218 -154q163 0 291 150q80 94 113 238l231 1000h200l-232 -1002q-25 -108 -25 -181q0 -24 4 -51q21 -154 198 -154q232 0 428 291
q125 185 182 434q35 152 35 270q0 99 -24 175q-36 -20 -75 -20q-53 0 -83 37q-20 25 -20 58q0 15 4 33q16 56 58 92q45 38 100 38q92 0 129 -100q46 -125 46 -280q0 -138 -37 -304q-63 -275 -193 -461q-283 -405 -589 -405q-231 0 -339 189q-8 14 -13 31q-56 -57 -109 -100
q-148 -120 -359 -120q-246 0 -319 189q-24 62 -24 148q0 80 26 193l173 750q7 31 7 54q0 69 -63 69q-76 0 -139 -123h-15z" />
    <glyph glyph-name="X" unicode="X" horiz-adv-x="1274" 
d="M103 250q15 -152 120 -152q87 0 159 56q132 103 394 366l-213 791q-19 72 -82 72q-82 0 -145 -123h-15q24 105 82 176q76 94 181 94q111 0 149 -145l193 -727q230 242 385 611q-53 0 -83 39q-21 27 -21 63q0 18 3 30q14 55 60 91q49 38 101 38q53 0 84 -39q23 -29 23 -79
q0 -29 -8 -66q-6 -30 -21 -70q-147 -388 -488 -735l95 -339q21 -75 96 -75q71 0 135 123h15q-24 -103 -82 -176q-75 -94 -179 -94q-120 0 -149 109l-82 306q-196 -202 -395 -348q-91 -67 -190 -67q-106 0 -137 94q-12 36 -12 80t12 96h15z" />
    <glyph glyph-name="Y" unicode="Y" horiz-adv-x="1420" 
d="M1529 1510l-231 -1000q-58 -249 -241 -402q-153 -128 -370 -128q-184 0 -273 63q-68 48 -68 119q0 17 4 36q12 56 59 94t101 38t84 -37q20 -25 20 -60q0 -15 -4 -33q-12 -53 -70 -105q35 -20 167 -20q134 0 240 105q97 96 136 264l45 196q-32 -40 -68 -74
q-145 -136 -311 -136q-216 0 -289 189q-24 62 -24 148q0 80 26 193l69 300q7 31 7 54q0 69 -63 69q-76 0 -139 -123h-15q24 103 82 176q75 94 191 94q112 0 144 -97q8 -24 8 -59q0 -47 -15 -113l-70 -303q-25 -106 -25 -180q0 -25 4 -52q21 -154 188 -154q134 0 261 150
q79 93 113 238l127 550h200z" />
    <glyph glyph-name="Z" unicode="Z" horiz-adv-x="1387" 
d="M105 -20l-6 14l1136 1375q-94 0 -228 36q-115 31 -172 31q-87 0 -140 -43q24 -37 24 -76q0 -14 -3 -29q-11 -53 -59 -93q-45 -37 -100 -37t-84 38q-21 28 -21 63q0 10 4 29q21 100 152 170q133 72 256 72q67 0 220 -35q96 -22 225 -22q119 0 270 57l7 -14l-1133 -1375
q120 0 254 -36q115 -31 223 -31q87 0 140 43q-26 38 -26 76q0 10 4 29q11 51 60 93q44 37 99 37t84 -38q21 -28 21 -63q0 -10 -4 -29q-21 -100 -151 -170q-134 -72 -257 -72q-119 0 -270 35q-95 22 -254 22q-119 0 -271 -57z" />
    <glyph glyph-name="bracketleft" unicode="[" horiz-adv-x="815" 
d="M668 1810h515l-28 -120h-328l-433 -1875h328l-26 -115h-515z" />
    <glyph glyph-name="backslash" unicode="\" horiz-adv-x="1065" 
d="M378 1596l152 64l507 -1740l-151 -70z" />
    <glyph glyph-name="bracketright" unicode="]" horiz-adv-x="815" 
d="M468 1810h515l-487 -2110h-515l26 115h328l433 1875h-328z" />
    <glyph glyph-name="asciicircum" unicode="^" horiz-adv-x="1269" 
d="M1024 1550l308 -374l-170 -127l-231 287l-386 -285l-73 93z" />
    <glyph glyph-name="underscore" unicode="_" horiz-adv-x="1233" 
d="M154 -200l34 150h833l-34 -150h-833z" />
    <glyph glyph-name="grave" unicode="`" horiz-adv-x="810" 
d="M856 1153l-298 197q-31 17 -31 56q1 14 4 29q9 45 51 82q38 33 92 33q61 0 81 -49l126 -326z" />
    <glyph glyph-name="a" unicode="a" 
d="M1298 250q-24 -104 -82 -176q-76 -94 -192 -94q-107 0 -143 97q-6 16 -8 42q-38 -42 -76 -73q-79 -66 -190 -66q-175 0 -270 136q-80 114 -80 268q0 77 20 166q63 267 260 434q160 136 334 136q106 0 161 -72q20 -26 27 -55l25 107h200l-196 -850q-7 -32 -7 -55
q0 -68 62 -68q76 0 140 123h15zM989 690q15 66 15 119t-15 95q-36 102 -143 102q-121 0 -211 -116q-85 -109 -138 -340q-33 -144 -33 -239q0 -61 14 -101q41 -116 158 -116q101 0 188 100q69 79 101 216z" />
    <glyph glyph-name="b" unicode="b" 
d="M301 1260q24 103 82 176q75 94 191 94q112 0 144 -97q8 -24 8 -59q0 -47 -15 -114l-62 -267q24 35 58 61q87 66 190 66q175 0 270 -136q80 -114 80 -268q0 -77 -20 -166q-63 -267 -260 -434q-160 -136 -334 -136q-188 0 -274 150q-42 73 -42 190q0 98 30 230l164 710
q7 31 7 54q0 69 -63 69q-76 0 -139 -123h-15zM515 410q-15 -66 -15 -119t15 -95q36 -102 143 -102q118 0 210 116q86 109 139 340q32 140 32 235q0 59 -14 105q-39 116 -157 116q-101 0 -188 -100q-69 -79 -101 -216z" />
    <glyph glyph-name="c" unicode="c" horiz-adv-x="1165" 
d="M1118 358q-72 -151 -167 -239q-151 -139 -321 -139q-216 0 -313 136q-80 112 -80 267q0 77 20 167q64 273 260 434q166 136 365 136q170 0 257 -138q53 -84 53 -166q0 -28 -6 -56q-14 -66 -62 -104t-101 -38t-84 38q-21 26 -21 60q0 15 4 31q14 55 59 91q32 26 74 35
q-37 141 -201 141q-136 0 -239 -124q-84 -101 -138 -340q-33 -146 -33 -239q0 -61 14 -101q42 -120 197 -120q106 0 205 97q65 64 117 171h141z" />
    <glyph glyph-name="d" unicode="d" 
d="M1298 250q-24 -104 -82 -176q-76 -94 -192 -94q-107 0 -143 97q-6 16 -8 42q-38 -42 -76 -73q-79 -66 -190 -66q-175 0 -270 136q-80 114 -80 268q0 77 20 166q63 267 260 434q160 136 334 136q106 0 161 -72q20 -26 27 -55l62 268q7 31 7 53q0 69 -63 69
q-76 0 -139 -123h-15q24 103 82 176q75 94 191 94q112 0 144 -97q8 -24 8 -59q0 -47 -15 -113l-233 -1011q-7 -32 -7 -55q0 -68 62 -68q76 0 140 123h15zM989 690q15 66 15 119t-15 95q-36 102 -143 102q-121 0 -211 -116q-85 -109 -138 -340q-33 -144 -33 -239
q0 -61 14 -101q41 -116 158 -116q101 0 188 100q69 79 101 216z" />
    <glyph glyph-name="e" unicode="e" horiz-adv-x="1165" 
d="M1118 358q-72 -151 -167 -239q-151 -139 -321 -139q-218 0 -313 136q-80 114 -80 268q0 78 20 166q62 270 260 434q163 136 361 136q157 0 239 -104q56 -71 56 -165q0 -40 -10 -83q-35 -151 -163 -262q-190 -165 -557 -167q0 -72 15 -129q32 -120 197 -120q106 0 205 97
q65 64 117 171h141zM450 410q248 8 390 147q102 100 128 209q15 63 15 110q0 31 -8 59q-23 79 -121 79q-143 0 -239 -124q-85 -110 -138 -340q-22 -96 -27 -140z" />
    <glyph glyph-name="f" unicode="f" horiz-adv-x="979" 
d="M-12 -160q7 -123 83 -123q84 0 112 123l205 888h-170l28 122h170l26 110q66 285 206 420q156 150 343 150q139 0 212 -120q44 -72 44 -139q0 -23 -5 -45q-15 -66 -62 -104q-48 -38 -102 -38q-51 0 -83 38q-21 25 -21 59q0 16 4 32q13 52 59 91q31 26 73 35
q-32 85 -140 85q-117 0 -197 -110q-73 -100 -131 -354l-26 -110h326l-28 -122h-326l-205 -888q-26 -114 -73 -173q-77 -97 -188 -97q-117 0 -149 94q-12 36 -12 80t12 96h15z" />
    <glyph glyph-name="g" unicode="g" horiz-adv-x="1210" 
d="M165 -212q14 55 60 94q45 38 101 38q52 0 83 -37q21 -25 21 -60q0 -16 -4 -33q-15 -55 -71 -105q36 -20 108 -20q128 0 242 97q87 74 121 222l28 120q-38 -43 -57 -58q-84 -66 -190 -66q-175 0 -270 136q-80 114 -80 268q0 77 20 166q63 267 260 434q160 136 334 136
q106 0 161 -72q20 -26 27 -55l25 107h200l-231 -1000q-57 -247 -241 -402q-152 -128 -369 -128q-127 0 -214 63q-68 49 -68 118q0 21 4 37zM989 690q15 66 15 119t-15 95q-36 102 -143 102q-121 0 -211 -116q-85 -109 -138 -340q-33 -144 -33 -239q0 -61 14 -101
q41 -116 158 -116q101 0 188 100q69 79 101 216z" />
    <glyph glyph-name="h" unicode="h" horiz-adv-x="1270" 
d="M220 0l291 1260q7 31 7 54q0 69 -63 69q-76 0 -139 -123h-15q24 103 82 176q75 94 191 94q112 0 144 -97q8 -24 8 -59q0 -47 -15 -113l-71 -306q37 43 82 79q110 86 247 86q165 0 230 -139q29 -62 29 -144q0 -68 -19 -147l-101 -440q-7 -32 -7 -55q0 -68 62 -68
q76 0 140 123h15q-24 -104 -82 -176q-76 -94 -192 -94q-109 0 -143 97q-9 26 -9 62q0 45 15 110l103 443q17 72 17 124q0 33 -7 58q-29 105 -144 105q-111 0 -189 -81t-108 -208l-159 -690h-200z" />
    <glyph glyph-name="i" unicode="i" horiz-adv-x="640" 
d="M688 250q-24 -104 -82 -176q-76 -94 -192 -94q-108 0 -143 97q-9 25 -9 60q0 43 16 113l138 600q7 32 7 55q0 68 -62 68q-76 0 -140 -123h-15q24 103 82 176q75 94 192 94q108 0 143 -97q9 -25 9 -60q0 -42 -16 -112l-138 -601q-7 -32 -7 -55q0 -68 62 -68q76 0 140 123
h15zM459 1366q0 15 4 32q13 56 60 94t100 38t83 -38q21 -27 21 -62q0 -15 -4 -32q-13 -56 -60 -94t-101 -38q-55 0 -83 38q-20 27 -20 62z" />
    <glyph glyph-name="j" unicode="j" horiz-adv-x="610" 
d="M459 1366q0 15 4 32q13 56 60 94t100 38t83 -38q21 -27 21 -62q0 -15 -4 -32q-13 -56 -60 -94t-101 -38q-55 0 -83 38q-20 27 -20 62zM-65 -410l4 15q236 200 319 561l158 684q7 32 7 55q0 68 -62 68q-76 0 -140 -123h-15q24 103 82 176q75 94 192 94q108 0 143 -97
q9 -25 9 -60q0 -43 -16 -112l-158 -685q-106 -459 -523 -576z" />
    <glyph glyph-name="k" unicode="k" horiz-adv-x="1188" 
d="M220 0l291 1260q7 31 7 54q0 69 -63 69q-76 0 -139 -123h-15q24 103 82 176q75 94 191 94q115 0 144 -97q8 -27 8 -61q0 -46 -15 -111l-192 -832q388 180 565 428q-48 4 -77 41q-21 27 -21 61q0 16 4 32q13 52 60 91q46 38 103 38q56 0 87 -40q29 -37 29 -81
q0 -20 -4 -35q-10 -35 -28 -68q-126 -225 -404 -407q200 -35 200 -179q0 -26 -7 -60q-7 -30 -7 -55q0 -68 62 -68q76 0 140 123h15q-24 -104 -82 -176q-76 -94 -192 -94q-112 0 -143 97q-9 28 -9 62q0 53 15 110q8 33 8 59q0 97 -100 122q-110 -62 -241 -117l-72 -313h-200z
" />
    <glyph glyph-name="l" unicode="l" horiz-adv-x="640" 
d="M688 250q-24 -104 -82 -176q-76 -94 -192 -94q-108 0 -143 97q-9 25 -9 60q0 44 16 113l233 1010q7 31 7 54q0 69 -63 69q-76 0 -139 -123h-15q24 103 82 176q75 94 191 94q112 0 144 -97q8 -24 8 -59q0 -47 -15 -113l-233 -1011q-7 -32 -7 -55q0 -68 62 -68
q76 0 140 123h15z" />
    <glyph glyph-name="m" unicode="m" horiz-adv-x="1890" 
d="M220 0l196 850q7 32 7 55q0 68 -62 68q-76 0 -140 -123h-15q24 103 82 176q75 94 192 94q108 0 143 -97q9 -25 9 -60q0 -12 -1 -20q38 50 91 91q111 86 247 86q166 0 230 -139q19 -41 25 -91q52 84 128 144q110 86 247 86q155 0 220 -139q29 -62 29 -144q0 -68 -19 -147
l-101 -440q-7 -32 -7 -55q0 -68 62 -68q76 0 140 123h15q-24 -104 -82 -176q-76 -94 -192 -94q-109 0 -143 97q-9 26 -9 62q0 45 15 110l103 443q17 72 17 124q0 27 -7 58q-26 105 -134 105q-111 0 -189 -81t-108 -208l-159 -690h-200l160 692q17 72 17 124q0 30 -7 58
q-26 105 -144 105q-111 0 -189 -81t-108 -208l-159 -690h-200z" />
    <glyph glyph-name="n" unicode="n" horiz-adv-x="1270" 
d="M220 0l196 850q7 32 7 55q0 68 -62 68q-76 0 -140 -123h-15q24 103 82 176q75 94 192 94q108 0 143 -97q9 -25 9 -60q0 -12 -1 -20q38 50 91 91q111 86 247 86q165 0 230 -139q29 -62 29 -144q0 -68 -19 -147l-101 -440q-7 -32 -7 -55q0 -68 62 -68q76 0 140 123h15
q-24 -104 -82 -176q-76 -94 -192 -94q-109 0 -143 97q-9 26 -9 62q0 45 15 110l103 443q17 72 17 124q0 28 -7 58q-26 105 -144 105q-111 0 -189 -81t-108 -208l-159 -690h-200z" />
    <glyph glyph-name="o" unicode="o" horiz-adv-x="1188" 
d="M589 -20q-177 0 -272 136q-80 114 -80 268q0 77 20 166q64 273 260 434q165 136 336 136q175 0 272 -136q80 -112 80 -267q0 -77 -20 -167q-62 -267 -260 -434q-161 -136 -336 -136zM826 1006q-121 0 -211 -116q-85 -110 -138 -340q-33 -144 -33 -239q0 -61 14 -101
q41 -116 158 -116t210 116q87 109 139 340q32 142 32 236q0 63 -14 104q-40 116 -157 116z" />
    <glyph glyph-name="p" unicode="p" 
d="M206 850q24 103 82 176q75 94 192 94q113 0 143 -97q5 -16 7 -42q38 41 77 73q81 66 190 66q175 0 270 -136q80 -114 80 -268q0 -77 -20 -166q-63 -267 -260 -434q-160 -136 -334 -136q-106 0 -161 72q-20 26 -27 55l-120 -517h-200l291 1260q7 32 7 55q0 68 -62 68
q-76 0 -140 -123h-15zM515 410q-15 -66 -15 -119t15 -95q36 -102 143 -102q118 0 210 116q86 109 139 340q32 140 32 235q0 61 -14 105q-40 116 -157 116q-101 0 -188 -100q-69 -79 -101 -216z" />
    <glyph glyph-name="q" unicode="q" 
d="M989 690q15 66 15 119t-15 95q-36 102 -143 102q-121 0 -211 -116q-85 -109 -138 -340q-33 -144 -33 -239q0 -61 14 -101q41 -116 158 -116q101 0 188 100q69 79 101 216zM1284 1100l-291 -1260q-7 -31 -7 -54q0 -69 63 -69q76 0 139 123h15q-24 -103 -82 -176
q-75 -94 -191 -94q-109 0 -144 97q-9 25 -9 60q0 44 16 113l62 267q-25 -36 -58 -61q-88 -66 -190 -66q-175 0 -270 136q-80 114 -80 268q0 77 20 166q63 267 260 434q160 136 334 136q106 0 161 -72q20 -26 27 -55l25 107h200z" />
    <glyph glyph-name="r" unicode="r" horiz-adv-x="1032" 
d="M220 0l196 850q7 32 7 55q0 68 -62 68q-76 0 -140 -123h-15q24 103 82 176q75 94 192 94q108 0 143 -97q9 -25 9 -60q0 -12 -1 -20q38 50 91 91q111 86 238 86q138 0 211 -120q44 -72 44 -139q0 -23 -5 -45q-15 -66 -62 -104t-101 -38q-53 0 -84 38q-21 26 -21 60
q0 15 4 31q14 54 59 91q32 26 73 35q-32 85 -140 85q-146 0 -256 -177t-149 -347l-113 -490h-200z" />
    <glyph glyph-name="s" unicode="s" horiz-adv-x="1086" 
d="M261 444q47 38 101 38q52 0 84 -38q20 -24 20 -58q0 -16 -4 -33q-12 -51 -59 -91q-31 -26 -73 -35q45 -149 195 -149q118 0 208 55q88 54 112 150q6 24 6 45q0 107 -95 141l-205 74q-167 60 -167 220q0 36 9 74q25 105 149 199q110 84 257 84q137 0 209 -64
q95 -84 95 -174q0 -20 -5 -40q-17 -66 -62 -104q-48 -40 -102 -40q-51 0 -83 38q-21 25 -21 59q0 16 4 32q13 52 59 91q31 26 73 35q-48 65 -143 65q-104 0 -161 -42q-63 -47 -86 -137q-4 -16 -4 -30q0 -89 91 -121l171 -60q214 -75 214 -254q0 -33 -10 -79
q-25 -125 -188 -229q-133 -86 -325 -86q-189 0 -279 138q-55 84 -55 164q0 29 7 58q16 66 63 104z" />
    <glyph glyph-name="t" unicode="t" horiz-adv-x="756" 
d="M756 250q-24 -104 -82 -176q-76 -94 -192 -94q-108 0 -143 97q-9 25 -9 60q0 44 16 113l168 728h-248l28 122h248l37 160q7 31 7 54q0 69 -63 69q-76 0 -139 -123h-15q24 103 82 176q75 94 191 94q112 0 144 -97q8 -24 8 -59q0 -47 -15 -113l-37 -161h248l-28 -122h-248
l-168 -728q-7 -32 -7 -55q0 -68 62 -68q76 0 140 123h15z" />
    <glyph glyph-name="u" unicode="u" horiz-adv-x="1270" 
d="M1318 250q-24 -104 -82 -176q-76 -94 -192 -94q-108 0 -143 97q-9 25 -9 60q0 12 1 20q-40 -50 -91 -91q-109 -86 -247 -86q-167 0 -231 139q-28 61 -28 143q0 67 19 148l101 440q7 32 7 55q0 68 -62 68q-76 0 -140 -123h-15q24 103 82 176q75 94 192 94q108 0 143 -97
q9 -25 9 -60q0 -43 -16 -112l-102 -443q-17 -72 -17 -124q0 -33 7 -58q26 -105 144 -105q111 0 189 81t108 208l159 690h200l-196 -850q-7 -32 -7 -55q0 -68 62 -68q76 0 140 123h15z" />
    <glyph glyph-name="v" unicode="v" horiz-adv-x="1222" 
d="M206 850q24 103 82 176q75 94 192 94q108 0 143 -97q9 -25 9 -60q0 -43 -16 -112l-102 -443q-17 -72 -17 -124q0 -33 7 -58q26 -105 144 -105q139 0 258 123q116 120 161 313q20 86 20 172q0 78 -16 153q-37 -20 -76 -20q-52 0 -82 37q-20 25 -20 60q0 10 4 31
q10 52 58 92q46 38 100 38q91 0 128 -100q43 -117 43 -249q0 -103 -26 -215q-50 -216 -200 -374q-192 -202 -396 -202q-216 0 -280 139q-28 61 -28 143q0 67 19 148l101 440q7 32 7 55q0 68 -62 68q-76 0 -140 -123h-15z" />
    <glyph glyph-name="w" unicode="w" horiz-adv-x="1852" 
d="M206 850q24 103 82 176q75 94 192 94q108 0 143 -97q9 -25 9 -60q0 -43 -16 -112l-102 -443q-17 -72 -17 -124q0 -33 7 -58q26 -105 144 -105q111 0 189 81t108 208l159 690h200l-160 -692q-17 -74 -17 -125q0 -33 7 -57q31 -105 144 -105q142 0 258 123q118 125 161 313
q20 87 20 173q0 79 -16 152q-37 -20 -76 -20q-52 0 -82 37q-20 25 -20 60q0 8 4 31q10 52 58 92q46 38 100 38q92 0 128 -100q42 -116 42 -249q0 -102 -25 -215q-48 -215 -200 -374q-193 -202 -396 -202q-210 0 -280 139q-9 18 -16 39q-40 -43 -108 -94q-112 -84 -275 -84
q-167 0 -231 139q-28 61 -28 143q0 67 19 148l101 440q7 32 7 55q0 68 -62 68q-76 0 -140 -123h-15z" />
    <glyph glyph-name="x" unicode="x" horiz-adv-x="1084" 
d="M83 250q16 -160 146 -160q64 0 126 44q150 107 275 224l-181 562q-17 52 -82 53q-82 0 -146 -123h-15q24 104 82 176q76 94 192 94q107 0 143 -112l159 -498q145 162 264 349q-52 0 -83 39q-21 26 -21 61q0 15 4 32q13 53 60 91q48 38 101 38q51 0 84 -39q27 -32 27 -77
q0 -19 -5 -40q-13 -53 -56 -123q-154 -247 -340 -439l71 -222q16 -53 89 -53q76 0 140 123h15q-24 -104 -82 -176q-76 -94 -187 -94q-110 0 -147 108l-53 166q-194 -174 -308 -238q-64 -36 -150 -36q-106 0 -137 94q-12 36 -12 80t12 96h15z" />
    <glyph glyph-name="y" unicode="y" horiz-adv-x="1230" 
d="M1304 1100l-231 -1000q-57 -247 -241 -402q-152 -128 -369 -128q-127 0 -214 63q-68 49 -68 118q0 18 4 37q14 55 60 94q45 38 101 38q52 0 83 -37q21 -25 21 -60q0 -13 -4 -33q-14 -54 -71 -105q36 -20 108 -20q128 0 242 97q87 74 121 222l37 159q-29 -36 -81 -77
q-109 -86 -247 -86q-167 0 -231 139q-28 61 -28 143q0 67 19 148l101 440q7 32 7 55q0 68 -62 68q-76 0 -140 -123h-15q24 103 82 176q75 94 192 94q108 0 143 -97q9 -25 9 -60q0 -43 -16 -112l-102 -443q-17 -72 -17 -124q0 -32 7 -58q26 -105 144 -105q111 0 189 81
t108 208l159 690h200z" />
    <glyph glyph-name="z" unicode="z" horiz-adv-x="1068" 
d="M50 -6l854 970q-42 8 -99 31q-77 31 -133 31q-87 0 -140 -43q26 -38 26 -76q0 -9 -4 -29q-11 -51 -60 -93q-44 -37 -99 -37q-59 0 -85 38q-19 28 -19 62q0 14 3 30q19 99 151 170q135 72 252 72q82 0 184 -35q61 -21 148 -21q86 0 211 56l6 -14l-846 -965q84 0 168 -36
q72 -31 133 -31q87 0 140 43q-26 38 -26 76q0 9 4 29q11 51 60 93q44 37 99 37t84 -38q21 -28 21 -63q0 -10 -4 -29q-21 -100 -151 -170q-134 -72 -252 -72q-83 0 -185 35q-64 22 -164 22q-130 0 -271 -57z" />
    <glyph glyph-name="braceleft" unicode="{" horiz-adv-x="776" 
d="M224 755q218 77 263 273l85 368q44 188 197 313q124 101 307 101q30 0 66 -9l-19 -83q-32 10 -64 10q-85 0 -159 -54q-89 -65 -137 -273l-86 -374q-39 -171 -236 -272q119 -80 119 -204q0 -33 -8 -68l-87 -374q-22 -94 -22 -158q0 -80 33 -115q49 -54 134 -54q32 0 68 10
l-19 -83q-40 -9 -70 -9q-180 0 -261 101q-66 82 -66 199q0 54 14 114l85 368q9 40 9 74q0 136 -146 199z" />
    <glyph glyph-name="bar" unicode="|" horiz-adv-x="655" 
d="M633 1660h155l-418 -1810h-155z" />
    <glyph glyph-name="braceright" unicode="}" horiz-adv-x="776" 
d="M900 755q-217 -77 -263 -273l-85 -368q-44 -192 -196 -313q-127 -101 -307 -101q-30 0 -66 9l19 83q32 -10 64 -10q85 0 158 54q89 66 137 273l87 374q39 171 235 272q-118 80 -118 204q0 32 8 68l86 374q22 94 22 158q0 79 -33 115q-50 54 -133 54q-32 0 -68 -10l19 83
q40 9 70 9q184 0 261 -101q65 -85 65 -200q0 -53 -14 -113l-85 -368q-9 -39 -9 -73q0 -138 146 -200z" />
    <glyph glyph-name="asciitilde" unicode="~" horiz-adv-x="1430" 
d="M342 614q161 307 379 307q73 0 123 -37l200 -148q38 -26 85 -26q102 0 296 134q-161 -306 -385 -306q-73 0 -117 36l-200 148q-36 26 -86 26q-101 0 -295 -134z" />
    <glyph glyph-name="uni00A0" unicode="&#xa0;" horiz-adv-x="797" 
 />
    <glyph glyph-name="exclamdown" unicode="&#xa1;" horiz-adv-x="659" 
d="M786 1430q0 -15 -4 -32q-13 -55 -60 -94q-46 -38 -100 -38q-55 0 -83 38q-20 27 -20 61q0 16 4 33q13 56 59 94q47 38 101 38q55 0 83 -38q20 -27 20 -62zM655 1194l-166 -1060q-2 -12 -4 -22q-10 -55 -59 -94q-47 -38 -101 -38t-83 38q-20 26 -20 61q0 16 4 33l6 22
l325 1060h98z" />
    <glyph glyph-name="cent" unicode="&#xa2;" horiz-adv-x="1205" 
d="M1138 358q-72 -152 -167 -239q-144 -133 -306 -139l-64 -280h-115l66 288q-141 25 -215 128q-80 112 -80 267q0 78 20 167q63 270 260 434q126 105 275 129l66 287h115l-65 -281q147 -10 231 -137q53 -80 53 -164q0 -31 -6 -58q-15 -66 -62 -104t-101 -38q-52 0 -84 38
q-21 25 -21 60q0 11 4 31q11 53 59 91q33 26 74 35q-34 127 -171 140l-213 -922q95 6 189 96q65 62 117 171h141zM786 1000q-83 -28 -151 -110q-83 -101 -138 -340q-33 -144 -33 -238q0 -61 14 -102q26 -76 101 -105z" />
    <glyph glyph-name="sterling" unicode="&#xa3;" horiz-adv-x="1211" 
d="M88 250h15q6 -123 82 -123q84 0 113 123l164 710q63 274 240 434q151 136 364 136q169 0 257 -138q54 -85 54 -167q0 -32 -6 -55q-16 -67 -62 -104q-47 -38 -102 -38q-51 0 -83 38q-21 25 -21 60q0 9 4 31q10 50 59 91q31 26 73 35q-36 141 -200 141q-127 0 -239 -124
q-80 -89 -138 -340l-47 -204h380l-28 -121h-380l-89 -385q-15 -63 -35 -109q140 -4 258 -36q114 -31 173 -31q87 0 140 43q-26 38 -26 76q0 9 4 29q11 51 60 93q44 37 99 37t84 -38q21 -28 21 -63q0 -9 -4 -29q-21 -100 -151 -170q-134 -72 -257 -72q-56 0 -220 35
q-93 20 -255 24q-67 -59 -153 -59q-117 0 -148 94q-12 36 -12 80t12 96z" />
    <glyph glyph-name="currency" unicode="&#xa4;" horiz-adv-x="1555" 
d="M1040 1151q-158 0 -264 -113q-104 -111 -143 -281q-17 -74 -17 -138q0 -89 35 -159q57 -111 201 -111t252 110q116 118 156 297q16 71 16 133q0 83 -30 148q-53 114 -206 114zM643 1315l101 -132q157 103 331 103q172 0 282 -103l163 132l106 -139l-169 -138
q28 -71 28 -155q0 -62 -16 -134q-39 -166 -163 -297l118 -153l-171 -139l-118 153q-146 -87 -307 -87q-159 0 -263 87l-189 -153l-107 139l188 153q-38 81 -38 177q0 60 15 127q35 156 144 282l-106 138z" />
    <glyph glyph-name="yen" unicode="&#xa5;" horiz-adv-x="1385" 
d="M423 0l3 15q180 45 223 234l42 181h-316l35 150h282l-37 150h-210l34 150h139l-94 380q-46 183 -174 235l4 15h562l-4 -15q-156 -48 -178 -148q-4 -18 -4 -39q0 -24 5 -46l86 -382h238l265 382q31 45 42 86q4 15 4 29q0 78 -115 118l4 15h470l-4 -15q-156 -55 -283 -235
l-269 -380h139l-34 -150h-210l-106 -150h281l-35 -150h-316l-42 -181q-9 -41 -9 -75q0 -124 124 -159l-3 -15h-539zM956 730h-101l24 -110z" />
    <glyph glyph-name="brokenbar" unicode="&#xa6;" horiz-adv-x="654" 
d="M215 -150l188 811h154l-188 -811h-154zM633 1660h154l-187 -810h-154z" />
    <glyph glyph-name="section" unicode="&#xa7;" horiz-adv-x="1162" 
d="M436 967l121 -82q-33 -31 -48 -94q-5 -21 -5 -40q0 -85 103 -122l205 -74q181 -65 181 -204q0 -27 -7 -58q-30 -131 -158 -229q-110 -84 -257 -84q-104 0 -168 42q-55 36 -80 68q-22 28 -34 62q-6 17 -6 38q0 19 5 42q12 54 59 93t101 39q55 0 83 -39q20 -28 20 -61
q0 -16 -4 -32q-15 -60 -59 -94l-22 -17q48 -39 105 -39q79 0 137 42q63 45 86 137q4 16 4 30q0 74 -98 108l-171 60q-208 73 -208 245q0 38 10 80q25 104 105 183zM1074 543l-121 82q37 34 49 94q4 20 4 38q0 87 -103 124l-205 74q-180 65 -180 204q0 27 7 58
q30 131 158 229q110 84 256 84q104 0 169 -42q55 -36 80 -68q23 -30 34 -62q6 -18 6 -39t-5 -41q-14 -56 -59 -93q-47 -39 -101 -39t-83 39q-20 27 -20 62q0 11 4 31q12 58 59 94l22 17q-48 39 -105 39q-77 0 -137 -42q-62 -43 -87 -137q-4 -15 -4 -30q0 -74 98 -108
l172 -60q208 -73 208 -245q0 -38 -10 -80q-25 -104 -106 -183z" />
    <glyph glyph-name="dieresis" unicode="&#xa8;" horiz-adv-x="997" 
d="M856 1366q0 15 4 32q13 56 60 94t100 38t83 -38q21 -27 21 -62q0 -15 -4 -32q-13 -56 -60 -94t-101 -38q-55 0 -83 38q-20 27 -20 62zM519 1366q0 15 4 32q13 56 60 94t100 38q54 0 83 -38q20 -26 20 -61q0 -16 -4 -33q-13 -56 -59 -94q-47 -38 -101 -38t-83 38
q-20 27 -20 62z" />
    <glyph glyph-name="copyright" unicode="&#xa9;" horiz-adv-x="1401" 
d="M1137 612q-60 -118 -141 -182q-103 -82 -215 -82q-115 0 -177 82q-57 75 -57 188q0 62 17 137q50 209 190 325q99 82 206 82q120 0 170 -76q36 -55 36 -120q0 -26 -6 -55q-8 -39 -42 -70q-28 -25 -66 -25q-35 0 -54 24q-20 24 -12 60q7 33 41 60q15 12 33 17
q-16 93 -110 93q-69 0 -121 -60q-72 -83 -113 -254q-23 -96 -23 -162q0 -56 17 -89q32 -63 111 -63q63 0 121 55q46 44 83 115h112zM1008 1331q240 0 358 -173q77 -113 77 -258q0 -69 -18 -146q-59 -253 -254 -404q-210 -163 -429 -163q-224 0 -350 163q-85 110 -85 260
q0 68 17 144q57 245 252 409q201 168 432 168zM989 1254q-190 0 -365 -141q-177 -143 -226 -359q-13 -57 -13 -111q0 -127 73 -237q97 -146 303 -146q191 0 370 146q169 138 219 348q17 71 17 134q0 131 -72 222q-112 144 -306 144z" />
    <glyph glyph-name="ordfeminine" unicode="&#xaa;" horiz-adv-x="1050" 
d="M885 1315q7 31 7 55t-7 42q-16 41 -57 41q-49 0 -85 -48q-41 -55 -65 -160q-16 -71 -16 -115q0 -27 6 -45q16 -48 64 -48q43 0 75 41q31 40 45 97zM1077 1540l-103 -445q-5 -20 -3 -29q3 -12 15 -12q22 0 54 61h43q-18 -77 -50 -118q-45 -57 -116 -57q-62 0 -83 51
q-9 -6 -15 -12q-45 -39 -110 -39q-97 0 -149 74q-43 61 -43 143q0 41 11 88q33 141 139 231q87 74 183 74q51 0 82 -29l5 19h140zM392 830h650l-35 -150h-650z" />
    <glyph glyph-name="guillemotleft" unicode="&#xab;" horiz-adv-x="1223" 
d="M1192 1276l67 -88l-351 -387l204 -414l-156 -131l-236 495zM795 1276l67 -88l-351 -387l204 -414l-156 -131l-236 495z" />
    <glyph glyph-name="logicalnot" unicode="&#xac;" horiz-adv-x="1233" 
d="M392 830h833l-104 -450h-154l69 300h-679z" />
    <glyph glyph-name="uni00AD" unicode="&#xad;" horiz-adv-x="1233" 
d="M392 830h833l-35 -150h-833z" />
    <glyph glyph-name="registered" unicode="&#xae;" horiz-adv-x="1401" 
d="M554 911q168 265 401 265q152 0 226 -78q53 -56 53 -139q0 -33 -8 -70q-23 -106 -104 -184q-53 -51 -109 -77q38 -23 50 -66l23 -93q10 -38 38 -38q22 0 41 15q20 16 37 44h15q97 114 133 264q17 72 17 135q0 129 -72 221q-113 144 -306 144q-190 0 -365 -141
q-177 -143 -226 -359q-13 -57 -13 -111q0 -127 73 -237q97 -146 303 -146q123 0 240 60q-37 19 -50 69l-38 141q-16 60 -51 71q-53 4 -94 29l-26 -114q-13 -59 -41 -96q-45 -59 -114 -59q-70 0 -89 57q-6 18 -6 43q0 31 10 75h43q-1 -29 6 -46q6 -15 21 -15q10 0 19 12
q6 8 11 29l104 450h140l-52 -225q28 -51 91 -51q68 0 119 50q54 53 75 148q6 27 6 52q0 40 -18 77q-35 69 -137 69q-174 0 -345 -203zM1008 1331q240 0 358 -173q77 -113 77 -257q0 -70 -18 -147q-59 -252 -254 -404q-209 -163 -429 -163q-224 0 -350 163q-85 110 -85 260
q0 68 17 144q55 244 252 409q201 168 432 168z" />
    <glyph glyph-name="macron" unicode="&#xaf;" horiz-adv-x="1233" 
d="M558 1550h833l-35 -150h-833z" />
    <glyph glyph-name="degree" unicode="&#xb0;" horiz-adv-x="1008" 
d="M709 909q71 0 124 70q63 83 92 206q14 59 14 106q0 52 -17 88q-30 63 -89 63q-63 0 -121 -67q-57 -66 -90 -211q-14 -61 -14 -111q0 -37 8 -68q20 -76 93 -76zM857 1530q127 0 196 -109q40 -63 40 -145q0 -46 -13 -99q-30 -130 -141 -232q-114 -105 -241 -105
q-126 0 -198 103q-40 57 -40 139q0 44 12 96q33 144 141 246q112 106 244 106z" />
    <glyph glyph-name="plusminus" unicode="&#xb1;" horiz-adv-x="1233" 
d="M294 406h833l-35 -150h-833zM842 1300h150l-79 -342h341l-34 -150h-341l-79 -342h-150l79 342h-342l34 150h342z" />
    <glyph glyph-name="uni00B2" unicode="&#xb2;" horiz-adv-x="963" 
d="M367 725q44 189 245 334l160 115q84 61 100 132q4 18 4 35q0 28 -12 52q-24 49 -90 49q-87 0 -144 -90q12 -4 25 -17q22 -22 13 -60q-8 -36 -39 -60q-32 -25 -66 -25t-54 26q-13 17 -13 41q0 12 3 25q24 102 111 179q90 79 201 79q104 0 166 -66q45 -48 45 -118
q0 -28 -7 -59q-28 -123 -146 -194l-207 -124q-38 -23 -73 -51q23 0 54 -11l136 -50q20 -7 40 -7q41 0 119 74h41q-87 -209 -209 -209q-17 0 -79 19l-124 38q-27 8 -40 8q-42 0 -124 -65h-36z" />
    <glyph glyph-name="uni00B3" unicode="&#xb3;" horiz-adv-x="940" 
d="M467 1049q30 25 67 25q33 0 53 -24q21 -25 12 -60q-8 -32 -40 -60q-14 -12 -33 -17q15 -93 109 -93q62 0 109 40q54 46 69 114q6 27 6 49q0 41 -20 69q-36 50 -126 76l8 36q85 27 124 63q38 34 48 84q4 19 4 33q0 23 -13 41q-22 26 -58 26q-54 0 -93 -41q13 -6 26 -22
q14 -18 6 -54t-39 -60q-32 -25 -66 -25t-54 27q-15 20 -15 45q0 11 3 22q19 70 71 119q83 78 186 78q88 0 130 -39q51 -47 51 -111q0 -18 -4 -38q-16 -80 -90 -130q-25 -17 -49 -29q49 -15 81 -51q42 -47 42 -112q0 -23 -7 -54q-24 -114 -134 -187q-96 -64 -212 -64
q-111 0 -163 79q-36 55 -36 121q0 28 7 59q9 39 40 65z" />
    <glyph glyph-name="acute" unicode="&#xb4;" horiz-adv-x="810" 
d="M486 1153l-15 22l278 326q42 49 103 49q51 0 76 -33q16 -21 16 -52q0 -16 -3 -30q-15 -62 -65 -85z" />
    <glyph glyph-name="uni00B5" unicode="&#xb5;" horiz-adv-x="1270" 
d="M125 -410l291 1260q7 32 7 55q0 68 -62 68q-76 0 -140 -123h-15q24 103 82 176q75 94 192 94q108 0 143 -97q9 -25 9 -60q0 -43 -16 -112l-102 -443q-17 -72 -17 -124q0 -32 7 -58q26 -105 144 -105q111 0 189 81t108 208l159 690h200l-196 -850q-7 -32 -7 -55
q0 -68 62 -68q76 0 140 123h15q-24 -104 -82 -176q-76 -94 -192 -94q-108 0 -143 97q-9 25 -9 60q0 12 1 20q-40 -50 -91 -91q-109 -86 -247 -86q-78 0 -133 30l-97 -420h-200z" />
    <glyph glyph-name="paragraph" unicode="&#xb6;" horiz-adv-x="1082" 
d="M632 0l176 764q-45 -4 -81 -4q-159 0 -239 71q-87 77 -87 206q0 50 13 108q49 218 219 314q126 71 271 71q229 0 229 -184q0 -42 -12 -93l-289 -1253h-69l296 1283h-60l-296 -1283h-71z" />
    <glyph glyph-name="periodcentered" unicode="&#xb7;" horiz-adv-x="659" 
d="M434 850q48 39 101 39q54 0 83 -39q20 -27 20 -61q0 -15 -4 -32q-13 -55 -59 -93q-47 -39 -101 -39q-53 0 -83 39q-20 25 -20 61q0 17 4 32q15 58 59 93z" />
    <glyph glyph-name="cedilla" unicode="&#xb8;" horiz-adv-x="730" 
d="M230 92q130 0 204 -68q64 -59 64 -139q0 -24 -6 -51q-24 -106 -104 -171q-92 -75 -205 -93l-43 172q95 0 145 34t62 84q5 21 5 42q0 40 -18 80q-26 60 -107 95z" />
    <glyph glyph-name="uni00B9" unicode="&#xb9;" horiz-adv-x="710" 
d="M744 1550h39l-155 -670q-4 -16 -4 -29q0 -57 66 -73l-10 -43h-310l10 43q89 18 108 102l86 372q4 16 4 30q0 58 -65 73l8 36q133 43 223 159z" />
    <glyph glyph-name="ordmasculine" unicode="&#xba;" horiz-adv-x="1050" 
d="M882 1550q95 0 149 -74q43 -59 43 -142q0 -42 -11 -89q-30 -140 -139 -231q-89 -74 -183 -74q-98 0 -150 74q-43 61 -43 143q0 41 11 88q34 144 140 231q90 74 183 74zM763 1037q48 0 85 48t65 160q17 69 17 114q0 24 -7 46q-17 48 -64 48q-50 0 -86 -48
q-39 -52 -64 -160q-16 -69 -16 -113q0 -29 7 -47q17 -48 63 -48zM392 830h650l-35 -150h-650z" />
    <glyph glyph-name="guillemotright" unicode="&#xbb;" horiz-adv-x="1223" 
d="M621 1276l235 -495l-471 -525l-68 88l352 387l-205 414zM1018 1276l235 -495l-471 -525l-68 88l352 387l-205 414z" />
    <glyph glyph-name="onequarter" unicode="&#xbc;" horiz-adv-x="1545" 
d="M744 1550h39l-155 -670q-4 -16 -4 -29q0 -57 66 -73l-10 -43h-310l10 43q89 18 108 102l86 372q4 16 4 30q0 58 -65 73l8 36q133 43 223 159zM1032 0l10 43q89 19 108 101l9 36h-361l7 34l603 601h37l-123 -534h88l-69 -101h-42l-9 -36q-4 -16 -4 -29q0 -57 66 -72
l-10 -43h-310zM1182 281l56 241l-240 -241h184zM1478 1530l122 -64l-1254 -1486l-117 70z" />
    <glyph glyph-name="onehalf" unicode="&#xbd;" horiz-adv-x="1703" 
d="M936 -10q44 189 245 334l160 115q84 61 100 132q4 18 4 35q0 28 -12 52q-24 49 -90 49q-87 0 -144 -90q12 -4 25 -17q22 -22 13 -60q-8 -36 -39 -60q-32 -25 -66 -25t-54 26q-13 17 -13 41q0 12 3 25q24 102 111 179q90 79 201 79q104 0 166 -66q45 -48 45 -118
q0 -28 -7 -59q-28 -123 -146 -194l-207 -124q-38 -23 -73 -51q23 0 54 -11l136 -50q20 -7 40 -7q41 0 119 74h41q-87 -209 -209 -209q-17 0 -79 19l-124 38q-27 8 -40 8q-42 0 -124 -65h-36zM744 1550h39l-155 -670q-4 -16 -4 -29q0 -57 66 -73l-10 -43h-310l10 43
q89 18 108 102l86 372q4 16 4 30q0 58 -65 73l8 36q133 43 223 159zM1478 1530l122 -64l-1254 -1486l-117 70z" />
    <glyph glyph-name="threequarters" unicode="&#xbe;" horiz-adv-x="1745" 
d="M467 1049q30 25 67 25q33 0 53 -24q21 -25 12 -60q-8 -32 -40 -60q-14 -12 -33 -17q15 -93 109 -93q62 0 109 40q54 46 69 114q6 27 6 49q0 41 -20 69q-36 50 -126 76l8 36q85 27 124 63q38 34 48 84q4 19 4 33q0 23 -13 41q-22 26 -58 26q-54 0 -93 -41q13 -6 26 -22
q14 -18 6 -54t-39 -60q-32 -25 -66 -25t-54 27q-15 20 -15 45q0 11 3 22q19 70 71 119q83 78 186 78q88 0 130 -39q51 -47 51 -111q0 -18 -4 -38q-16 -80 -90 -130q-25 -17 -49 -29q49 -15 81 -51q42 -47 42 -112q0 -23 -7 -54q-24 -114 -134 -187q-96 -64 -212 -64
q-111 0 -163 79q-36 55 -36 121q0 28 7 59q9 39 40 65zM1232 0l10 43q89 19 108 101l9 36h-361l7 34l603 601h37l-123 -534h88l-69 -101h-42l-9 -36q-4 -16 -4 -29q0 -57 66 -72l-10 -43h-310zM1382 281l56 241l-240 -241h184zM1678 1530l122 -64l-1254 -1486l-117 70z" />
    <glyph glyph-name="questiondown" unicode="&#xbf;" horiz-adv-x="1251" 
d="M1007 1128q-37 -158 -187 -282l-131 -108q-190 -156 -231 -330q-10 -42 -10 -81q0 -58 27 -116q54 -115 212 -115q222 0 358 252q-51 0 -80 32q-21 23 -21 58q0 15 4 32q13 53 59 90q49 39 101 39t83 -39q20 -25 20 -63q0 -18 -5 -40q-42 -187 -207 -333
q-162 -144 -367 -144q-195 0 -313 124q-84 88 -84 216q0 50 13 106q41 188 279 349l228 154q134 91 159 199h93zM1081 1304q-46 -38 -100 -38q-55 0 -83 38q-20 27 -20 61q0 16 4 33q13 56 59 94q47 38 101 38q55 0 83 -38q20 -27 20 -62q0 -15 -4 -32q-13 -55 -60 -94z" />
    <glyph glyph-name="Agrave" unicode="&#xc0;" horiz-adv-x="1510" 
d="M1006 1612l-25 -22l-248 166q-33 23 -33 64q0 13 3 28q7 36 42 69t85 33q58 0 78 -55zM68 250h15q4 -166 62 -166q59 0 162 166l654 1055q-13 53 -62 53q-80 0 -153 -118h-15q29 124 87 196q76 94 184 94q112 0 136 -151l182 -1129q16 -98 84 -98q69 0 143 118h15
q-36 -142 -78 -197q-71 -93 -156 -93q-151 0 -194 266l-48 295h-483l-178 -291q-68 -111 -121 -172q-85 -98 -160 -98q-100 0 -100 100q0 56 24 170zM664 642h405l-81 532z" />
    <glyph glyph-name="Aacute" unicode="&#xc1;" horiz-adv-x="1510" 
d="M1013 1590l-15 22l230 283q44 55 102 55q48 0 71 -33q13 -19 13 -44q0 -12 -3 -25q-14 -62 -74 -92zM68 250h15q4 -166 62 -166q59 0 162 166l654 1055q-13 53 -62 53q-80 0 -153 -118h-15q29 124 87 196q76 94 184 94q112 0 136 -151l182 -1129q16 -98 84 -98
q69 0 143 118h15q-36 -142 -78 -197q-71 -93 -156 -93q-151 0 -194 266l-48 295h-483l-178 -291q-68 -111 -121 -172q-85 -98 -160 -98q-100 0 -100 100q0 56 24 170zM664 642h405l-81 532z" />
    <glyph glyph-name="Acircumflex" unicode="&#xc2;" horiz-adv-x="1510" 
d="M1032 1950h120l135 -282h-134q-60 48 -94 138q-72 -85 -158 -138h-134zM68 250h15q4 -166 62 -166q59 0 162 166l654 1055q-13 53 -62 53q-80 0 -153 -118h-15q29 124 87 196q76 94 184 94q112 0 136 -151l182 -1129q16 -98 84 -98q69 0 143 118h15q-36 -142 -78 -197
q-71 -93 -156 -93q-151 0 -194 266l-48 295h-483l-178 -291q-68 -111 -121 -172q-85 -98 -160 -98q-100 0 -100 100q0 56 24 170zM664 642h405l-81 532z" />
    <glyph glyph-name="Atilde" unicode="&#xc3;" horiz-adv-x="1510" 
d="M761 1669q71 241 209 241q57 0 104 -36l66 -51q30 -23 57 -23q61 0 169 110q-71 -241 -209 -241q-57 0 -103 36l-67 51q-29 23 -56 23q-61 0 -170 -110zM68 250h15q4 -166 62 -166q59 0 162 166l654 1055q-13 53 -62 53q-80 0 -153 -118h-15q29 124 87 196q76 94 184 94
q112 0 136 -151l182 -1129q16 -98 84 -98q69 0 143 118h15q-36 -142 -78 -197q-71 -93 -156 -93q-151 0 -194 266l-48 295h-483l-178 -291q-68 -111 -121 -172q-85 -98 -160 -98q-100 0 -100 100q0 56 24 170zM664 642h405l-81 532z" />
    <glyph glyph-name="Adieresis" unicode="&#xc4;" horiz-adv-x="1510" 
d="M1093 1738q0 15 4 32q13 56 60 94t100 38t83 -38q21 -27 21 -62q0 -15 -4 -32q-13 -56 -60 -94t-101 -38q-55 0 -83 38q-20 27 -20 62zM756 1738q0 15 4 32q13 56 60 94t100 38q54 0 83 -38q20 -26 20 -61q0 -16 -4 -33q-13 -56 -59 -94q-47 -38 -101 -38t-83 38
q-20 27 -20 62zM68 250h15q4 -166 62 -166q59 0 162 166l654 1055q-13 53 -62 53q-80 0 -153 -118h-15q29 124 87 196q76 94 184 94q112 0 136 -151l182 -1129q16 -98 84 -98q69 0 143 118h15q-36 -142 -78 -197q-71 -93 -156 -93q-151 0 -194 266l-48 295h-483l-178 -291
q-68 -111 -121 -172q-85 -98 -160 -98q-100 0 -100 100q0 56 24 170zM664 642h405l-81 532z" />
    <glyph glyph-name="Aring" unicode="&#xc5;" horiz-adv-x="1510" 
d="M1080 1864q-36 0 -66 -26q-29 -25 -39 -64q-3 -12 -3 -23q0 -23 13 -41q19 -26 53 -26q36 0 67 26q33 28 40 64q2 11 2 21q0 24 -13 43q-19 26 -54 26zM1098 1950q74 0 112 -51q27 -36 27 -84q0 -20 -5 -43q-16 -74 -80 -127q-63 -52 -136 -52t-112 52q-27 36 -27 84
q0 20 5 43q16 73 80 126q63 52 136 52zM68 250h15q4 -166 62 -166q59 0 162 166l654 1055q-13 53 -62 53q-80 0 -153 -118h-15q29 124 87 196q76 94 184 94q112 0 136 -151l182 -1129q16 -98 84 -98q69 0 143 118h15q-36 -142 -78 -197q-71 -93 -156 -93q-151 0 -194 266
l-48 295h-483l-178 -291q-68 -111 -121 -172q-85 -98 -160 -98q-100 0 -100 100q0 56 24 170zM664 642h405l-81 532z" />
    <glyph glyph-name="AE" unicode="&#xc6;" horiz-adv-x="2209" 
d="M664 642h405l-81 532zM2208 429q-91 -173 -241 -295q-189 -154 -400 -154q-88 0 -162 21q-37 -21 -77 -21q-151 0 -194 266l-48 295h-483l-178 -291q-68 -111 -121 -172q-85 -98 -160 -98q-100 0 -100 100q0 56 24 170h15q4 -166 62 -166q59 0 162 166l654 1055
q-13 53 -62 53q-80 0 -153 -118h-15q29 124 87 196q76 94 184 94q112 0 136 -151l115 -716q39 44 89 80q145 104 325 121q-107 30 -174 100q-61 64 -61 156q0 35 9 75q35 155 207 264q113 71 271 71q190 0 272 -142q36 -62 36 -136q0 -36 -9 -76q-14 -63 -65 -106
q-50 -42 -104 -42q-52 0 -83 38q-21 26 -21 60q0 15 4 31q14 57 59 92t93 35q-39 148 -199 148q-77 0 -166 -63q-81 -57 -107 -177q-9 -41 -9 -77q0 -65 32 -116q48 -75 179 -128l-3 -15q-193 -45 -318 -153q-126 -109 -161 -266q-10 -45 -10 -86q0 -98 57 -171
q70 -90 219 -90q159 0 290 124q112 106 164 215h139z" />
    <glyph glyph-name="Ccedilla" unicode="&#xc7;" horiz-adv-x="1389" 
d="M1368 429q-91 -173 -241 -295q-160 -130 -335 -150q29 -45 29 -99q0 -24 -6 -51q-24 -106 -104 -171q-92 -75 -205 -93l-43 172q95 0 145 34t62 84q5 21 5 42q0 37 -19 83q-161 22 -257 149q-108 143 -108 358q0 120 33 263q93 403 362 621q190 154 407 154
q203 0 310 -149q81 -113 81 -215q0 -28 -6 -56q-14 -65 -62 -104q-47 -38 -102 -38q-52 0 -83 38q-21 26 -21 61q0 7 4 30q10 52 59 91q32 26 73 35q-79 201 -272 201q-160 0 -287 -136q-157 -168 -240 -531q-46 -202 -46 -338q0 -120 36 -189q73 -140 252 -140
q145 0 276 124q112 106 164 215h139z" />
    <glyph glyph-name="Egrave" unicode="&#xc8;" horiz-adv-x="1323" 
d="M1006 1612l-25 -22l-248 166q-33 23 -33 64q0 13 3 28q7 36 42 69t85 33q58 0 78 -55zM1322 429q-91 -173 -241 -295q-189 -154 -400 -154q-212 0 -342 120q-100 92 -100 233q0 51 13 109q45 185 204 301q143 104 325 121q-107 30 -174 100q-61 64 -61 156q0 35 9 75
q35 155 207 264q113 71 271 71q190 0 272 -142q36 -62 36 -136q0 -36 -9 -76q-14 -63 -65 -106q-50 -42 -104 -42q-52 0 -83 38q-21 26 -21 60q0 15 4 31q14 57 59 92t93 35q-39 148 -199 148q-77 0 -166 -63q-81 -57 -107 -177q-9 -41 -9 -77q0 -65 32 -116
q48 -75 179 -128l-3 -15q-193 -45 -318 -153q-126 -109 -161 -266q-10 -45 -10 -86q0 -95 57 -171q70 -90 219 -90q159 0 290 124q112 106 164 215h139z" />
    <glyph glyph-name="Eacute" unicode="&#xc9;" horiz-adv-x="1323" 
d="M1013 1590l-15 22l230 283q44 55 102 55q48 0 71 -33q13 -19 13 -44q0 -12 -3 -25q-14 -62 -74 -92zM1322 429q-91 -173 -241 -295q-189 -154 -400 -154q-212 0 -342 120q-100 92 -100 233q0 51 13 109q45 185 204 301q143 104 325 121q-107 30 -174 100q-61 64 -61 156
q0 35 9 75q35 155 207 264q113 71 271 71q190 0 272 -142q36 -62 36 -136q0 -36 -9 -76q-14 -63 -65 -106q-50 -42 -104 -42q-52 0 -83 38q-21 26 -21 60q0 15 4 31q14 57 59 92t93 35q-39 148 -199 148q-77 0 -166 -63q-81 -57 -107 -177q-9 -41 -9 -77q0 -65 32 -116
q48 -75 179 -128l-3 -15q-193 -45 -318 -153q-126 -109 -161 -266q-10 -45 -10 -86q0 -95 57 -171q70 -90 219 -90q159 0 290 124q112 106 164 215h139z" />
    <glyph glyph-name="Ecircumflex" unicode="&#xca;" horiz-adv-x="1323" 
d="M1032 1950h120l135 -282h-134q-60 48 -94 138q-72 -85 -158 -138h-134zM1322 429q-91 -173 -241 -295q-189 -154 -400 -154q-212 0 -342 120q-100 92 -100 233q0 51 13 109q45 185 204 301q143 104 325 121q-107 30 -174 100q-61 64 -61 156q0 35 9 75q35 155 207 264
q113 71 271 71q190 0 272 -142q36 -62 36 -136q0 -36 -9 -76q-14 -63 -65 -106q-50 -42 -104 -42q-52 0 -83 38q-21 26 -21 60q0 15 4 31q14 57 59 92t93 35q-39 148 -199 148q-77 0 -166 -63q-81 -57 -107 -177q-9 -41 -9 -77q0 -65 32 -116q48 -75 179 -128l-3 -15
q-193 -45 -318 -153q-126 -109 -161 -266q-10 -45 -10 -86q0 -95 57 -171q70 -90 219 -90q159 0 290 124q112 106 164 215h139z" />
    <glyph glyph-name="Edieresis" unicode="&#xcb;" horiz-adv-x="1323" 
d="M1143 1738q0 15 4 32q13 56 60 94t100 38t83 -38q21 -27 21 -62q0 -15 -4 -32q-13 -56 -60 -94t-101 -38q-55 0 -83 38q-20 27 -20 62zM806 1738q0 15 4 32q13 56 60 94t100 38q54 0 83 -38q20 -26 20 -61q0 -16 -4 -33q-13 -56 -59 -94q-47 -38 -101 -38t-83 38
q-20 27 -20 62zM1322 429q-91 -173 -241 -295q-189 -154 -400 -154q-212 0 -342 120q-100 92 -100 233q0 51 13 109q45 185 204 301q143 104 325 121q-107 30 -174 100q-61 64 -61 156q0 35 9 75q35 155 207 264q113 71 271 71q190 0 272 -142q36 -62 36 -136q0 -36 -9 -76
q-14 -63 -65 -106q-50 -42 -104 -42q-52 0 -83 38q-21 26 -21 60q0 15 4 31q14 57 59 92t93 35q-39 148 -199 148q-77 0 -166 -63q-81 -57 -107 -177q-9 -41 -9 -77q0 -65 32 -116q48 -75 179 -128l-3 -15q-193 -45 -318 -153q-126 -109 -161 -266q-10 -45 -10 -86
q0 -95 57 -171q70 -90 219 -90q159 0 290 124q112 106 164 215h139z" />
    <glyph glyph-name="Igrave" unicode="&#xcc;" horiz-adv-x="680" 
d="M740 1612l-25 -22l-248 166q-33 23 -33 64q0 13 3 28q7 36 42 69t85 33q58 0 78 -55zM103 250q6 -123 82 -123q84 0 113 123l291 1260h200l-291 -1260q-27 -114 -73 -173q-76 -97 -189 -97q-117 0 -148 94q-12 36 -12 80t12 96h15z" />
    <glyph glyph-name="Iacute" unicode="&#xcd;" horiz-adv-x="680" 
d="M698 1590l-15 22l230 283q44 55 102 55q48 0 71 -33q13 -19 13 -44q0 -12 -3 -25q-14 -62 -74 -92zM103 250q6 -123 82 -123q84 0 113 123l291 1260h200l-291 -1260q-27 -114 -73 -173q-76 -97 -189 -97q-117 0 -148 94q-12 36 -12 80t12 96h15z" />
    <glyph glyph-name="Icircumflex" unicode="&#xce;" horiz-adv-x="680" 
d="M734 1950h120l135 -282h-134q-60 48 -94 138q-72 -85 -158 -138h-134zM103 250q6 -123 82 -123q84 0 113 123l291 1260h200l-291 -1260q-27 -114 -73 -173q-76 -97 -189 -97q-117 0 -148 94q-12 36 -12 80t12 96h15z" />
    <glyph glyph-name="Idieresis" unicode="&#xcf;" horiz-adv-x="680" 
d="M777 1738q0 15 4 32q13 56 60 94t100 38t83 -38q21 -27 21 -62q0 -15 -4 -32q-13 -56 -60 -94t-101 -38q-55 0 -83 38q-20 27 -20 62zM440 1738q0 15 4 32q13 56 60 94t100 38q54 0 83 -38q20 -26 20 -61q0 -16 -4 -33q-13 -56 -59 -94q-47 -38 -101 -38t-83 38
q-20 27 -20 62zM103 250q6 -123 82 -123q84 0 113 123l291 1260h200l-291 -1260q-27 -114 -73 -173q-76 -97 -189 -97q-117 0 -148 94q-12 36 -12 80t12 96h15z" />
    <glyph glyph-name="Eth" unicode="&#xd0;" horiz-adv-x="1544" 
d="M152 250q6 -123 82 -123q84 0 113 123l81 350h-157l28 122h157l89 388h200l-89 -388h440l-28 -122h-440l-81 -350q-15 -65 -37 -113q104 -57 190 -57q218 0 431 239q133 149 196 427q33 145 33 260q0 104 -28 185q-87 239 -345 239q-402 0 -713 -387l-11 10
q310 477 739 477q346 0 504 -256q72 -117 72 -284q0 -108 -30 -236q-76 -325 -282 -518q-273 -256 -589 -256q-159 0 -240 58q-66 -58 -152 -58q-117 0 -148 94q-12 36 -12 80t12 96h15z" />
    <glyph glyph-name="Ntilde" unicode="&#xd1;" horiz-adv-x="1515" 
d="M861 1669q71 241 209 241q57 0 104 -36l66 -51q30 -23 57 -23q61 0 169 110q-71 -241 -209 -241q-57 0 -103 36l-67 51q-29 23 -56 23q-61 0 -170 -110zM103 250q20 -167 98 -167q77 0 116 167l246 1054q-25 70 -73 70q-84 0 -159 -134h-15q29 123 87 196q75 94 173 94
t168 -142l495 -1007l204 879q28 120 67 174q69 96 163 96q93 0 112 -100q5 -27 5 -58q0 -48 -14 -112h-15q-21 167 -94 167t-112 -167l-300 -1300h-15l-598 1204l-213 -914q-28 -119 -67 -174q-68 -96 -173 -96q-92 0 -111 100q-5 26 -5 55q0 55 15 115h15z" />
    <glyph glyph-name="Ograve" unicode="&#xd2;" horiz-adv-x="1464" 
d="M1106 1612l-25 -22l-248 166q-33 23 -33 64q0 13 3 28q7 36 42 69t85 33q58 0 78 -55zM1061 1425q-137 0 -266 -131q-168 -171 -253 -539q-41 -178 -41 -311q0 -139 45 -228q66 -131 206 -131q154 0 272 130q161 177 246 540q43 184 43 318q0 138 -46 221
q-73 131 -206 131zM727 -20q-209 0 -328 154q-109 141 -109 357q0 122 34 264q92 396 362 621q185 154 399 154q215 0 329 -154q106 -143 106 -360q0 -118 -32 -261q-93 -403 -359 -616q-198 -159 -402 -159z" />
    <glyph glyph-name="Oacute" unicode="&#xd3;" horiz-adv-x="1464" 
d="M1113 1590l-15 22l230 283q44 55 102 55q48 0 71 -33q13 -19 13 -44q0 -12 -3 -25q-14 -62 -74 -92zM1061 1425q-137 0 -266 -131q-168 -171 -253 -539q-41 -178 -41 -311q0 -139 45 -228q66 -131 206 -131q154 0 272 130q161 177 246 540q43 184 43 318q0 138 -46 221
q-73 131 -206 131zM727 -20q-209 0 -328 154q-109 141 -109 357q0 122 34 264q92 396 362 621q185 154 399 154q215 0 329 -154q106 -143 106 -360q0 -118 -32 -261q-93 -403 -359 -616q-198 -159 -402 -159z" />
    <glyph glyph-name="Ocircumflex" unicode="&#xd4;" horiz-adv-x="1464" 
d="M1132 1950h120l135 -282h-134q-60 48 -94 138q-72 -85 -158 -138h-134zM1061 1425q-137 0 -266 -131q-168 -171 -253 -539q-41 -178 -41 -311q0 -139 45 -228q66 -131 206 -131q154 0 272 130q161 177 246 540q43 184 43 318q0 138 -46 221q-73 131 -206 131zM727 -20
q-209 0 -328 154q-109 141 -109 357q0 122 34 264q92 396 362 621q185 154 399 154q215 0 329 -154q106 -143 106 -360q0 -118 -32 -261q-93 -403 -359 -616q-198 -159 -402 -159z" />
    <glyph glyph-name="Otilde" unicode="&#xd5;" horiz-adv-x="1464" 
d="M861 1669q71 241 209 241q57 0 104 -36l66 -51q30 -23 57 -23q61 0 169 110q-71 -241 -209 -241q-57 0 -103 36l-67 51q-29 23 -56 23q-61 0 -170 -110zM1061 1425q-137 0 -266 -131q-168 -171 -253 -539q-41 -178 -41 -311q0 -139 45 -228q66 -131 206 -131
q154 0 272 130q161 177 246 540q43 184 43 318q0 138 -46 221q-73 131 -206 131zM727 -20q-209 0 -328 154q-109 141 -109 357q0 122 34 264q92 396 362 621q185 154 399 154q215 0 329 -154q106 -143 106 -360q0 -118 -32 -261q-93 -403 -359 -616q-198 -159 -402 -159z
" />
    <glyph glyph-name="Odieresis" unicode="&#xd6;" horiz-adv-x="1464" 
d="M1193 1738q0 15 4 32q13 56 60 94t100 38t83 -38q21 -27 21 -62q0 -15 -4 -32q-13 -56 -60 -94t-101 -38q-55 0 -83 38q-20 27 -20 62zM856 1738q0 15 4 32q13 56 60 94t100 38q54 0 83 -38q20 -26 20 -61q0 -16 -4 -33q-13 -56 -59 -94q-47 -38 -101 -38t-83 38
q-20 27 -20 62zM1061 1425q-137 0 -266 -131q-168 -171 -253 -539q-41 -178 -41 -311q0 -139 45 -228q66 -131 206 -131q154 0 272 130q161 177 246 540q43 184 43 318q0 138 -46 221q-73 131 -206 131zM727 -20q-209 0 -328 154q-109 141 -109 357q0 122 34 264
q92 396 362 621q185 154 399 154q215 0 329 -154q106 -143 106 -360q0 -118 -32 -261q-93 -403 -359 -616q-198 -159 -402 -159z" />
    <glyph glyph-name="multiply" unicode="&#xd7;" horiz-adv-x="1096" 
d="M561 1103l186 -242l297 242l81 -107l-297 -241l187 -241l-131 -107l-186 242l-298 -242l-81 107l297 241l-186 242z" />
    <glyph glyph-name="Oslash" unicode="&#xd8;" horiz-adv-x="1464" 
d="M234 -52l152 204q-95 137 -95 340q0 120 33 263q91 395 362 621q185 154 399 154q161 0 265 -87l125 167l92 -49l-146 -196q99 -141 99 -350q0 -117 -32 -260q-93 -402 -359 -616q-198 -159 -402 -159q-164 0 -271 94l-130 -174zM553 203q67 -118 199 -118q154 0 272 130
q162 178 246 540q43 185 43 318q0 74 -13 130zM1255 1315q-72 110 -194 110q-140 0 -266 -131q-169 -175 -253 -539q-41 -177 -41 -310q0 -69 11 -125z" />
    <glyph glyph-name="Ugrave" unicode="&#xd9;" horiz-adv-x="1480" 
d="M1106 1612l-25 -22l-248 166q-33 23 -33 64q0 13 3 28q7 36 42 69t85 33q58 0 78 -55zM1589 1510l-291 -1260q-7 -32 -7 -55q0 -68 62 -68q76 0 140 123h15q-24 -104 -82 -176q-76 -94 -192 -94q-113 0 -143 97q-8 26 -8 61q0 25 4 56q-34 -43 -71 -78
q-141 -136 -341 -136q-246 0 -319 189q-24 62 -24 148q0 80 26 193l173 750q7 31 7 54q0 69 -63 69q-76 0 -139 -123h-15q24 103 82 176q75 94 191 94q112 0 144 -97q8 -24 8 -59q0 -47 -15 -113l-174 -753q-25 -106 -25 -180q0 -27 4 -52q21 -154 218 -154q164 0 291 150
q79 93 113 238l231 1000h200z" />
    <glyph glyph-name="Uacute" unicode="&#xda;" horiz-adv-x="1480" 
d="M1013 1590l-15 22l230 283q44 55 102 55q48 0 71 -33q13 -19 13 -44q0 -12 -3 -25q-14 -62 -74 -92zM1589 1510l-291 -1260q-7 -32 -7 -55q0 -68 62 -68q76 0 140 123h15q-24 -104 -82 -176q-76 -94 -192 -94q-113 0 -143 97q-8 26 -8 61q0 25 4 56q-34 -43 -71 -78
q-141 -136 -341 -136q-246 0 -319 189q-24 62 -24 148q0 80 26 193l173 750q7 31 7 54q0 69 -63 69q-76 0 -139 -123h-15q24 103 82 176q75 94 191 94q112 0 144 -97q8 -24 8 -59q0 -47 -15 -113l-174 -753q-25 -106 -25 -180q0 -27 4 -52q21 -154 218 -154q164 0 291 150
q79 93 113 238l231 1000h200z" />
    <glyph glyph-name="Ucircumflex" unicode="&#xdb;" horiz-adv-x="1480" 
d="M1082 1950h120l135 -282h-134q-60 48 -94 138q-72 -85 -158 -138h-134zM1589 1510l-291 -1260q-7 -32 -7 -55q0 -68 62 -68q76 0 140 123h15q-24 -104 -82 -176q-76 -94 -192 -94q-113 0 -143 97q-8 26 -8 61q0 25 4 56q-34 -43 -71 -78q-141 -136 -341 -136
q-246 0 -319 189q-24 62 -24 148q0 80 26 193l173 750q7 31 7 54q0 69 -63 69q-76 0 -139 -123h-15q24 103 82 176q75 94 191 94q112 0 144 -97q8 -24 8 -59q0 -47 -15 -113l-174 -753q-25 -106 -25 -180q0 -27 4 -52q21 -154 218 -154q164 0 291 150q79 93 113 238
l231 1000h200z" />
    <glyph glyph-name="Udieresis" unicode="&#xdc;" horiz-adv-x="1480" 
d="M1143 1738q0 15 4 32q13 56 60 94t100 38t83 -38q21 -27 21 -62q0 -15 -4 -32q-13 -56 -60 -94t-101 -38q-55 0 -83 38q-20 27 -20 62zM806 1738q0 15 4 32q13 56 60 94t100 38q54 0 83 -38q20 -26 20 -61q0 -16 -4 -33q-13 -56 -59 -94q-47 -38 -101 -38t-83 38
q-20 27 -20 62zM1589 1510l-291 -1260q-7 -32 -7 -55q0 -68 62 -68q76 0 140 123h15q-24 -104 -82 -176q-76 -94 -192 -94q-113 0 -143 97q-8 26 -8 61q0 25 4 56q-34 -43 -71 -78q-141 -136 -341 -136q-246 0 -319 189q-24 62 -24 148q0 80 26 193l173 750q7 31 7 54
q0 69 -63 69q-76 0 -139 -123h-15q24 103 82 176q75 94 191 94q112 0 144 -97q8 -24 8 -59q0 -47 -15 -113l-174 -753q-25 -106 -25 -180q0 -27 4 -52q21 -154 218 -154q164 0 291 150q79 93 113 238l231 1000h200z" />
    <glyph glyph-name="Yacute" unicode="&#xdd;" horiz-adv-x="1420" 
d="M1013 1590l-15 22l230 283q44 55 102 55q48 0 71 -33q13 -19 13 -44q0 -12 -3 -25q-14 -62 -74 -92zM1529 1510l-231 -1000q-58 -249 -241 -402q-153 -128 -370 -128q-184 0 -273 63q-68 48 -68 119q0 17 4 36q12 56 59 94t101 38t84 -37q20 -25 20 -60q0 -15 -4 -33
q-12 -53 -70 -105q35 -20 167 -20q134 0 240 105q97 96 136 264l45 196q-32 -40 -68 -74q-145 -136 -311 -136q-216 0 -289 189q-24 62 -24 148q0 80 26 193l69 300q7 31 7 54q0 69 -63 69q-76 0 -139 -123h-15q24 103 82 176q75 94 191 94q112 0 144 -97q8 -24 8 -59
q0 -47 -15 -113l-70 -303q-25 -106 -25 -180q0 -25 4 -52q21 -154 188 -154q134 0 261 150q79 93 113 238l127 550h200z" />
    <glyph glyph-name="Thorn" unicode="&#xde;" horiz-adv-x="1455" 
d="M152 250q6 -123 82 -123q84 0 113 123l198 859q-170 -97 -322 -286l-11 10q162 248 354 367l72 310h200l-51 -218q80 18 164 18q295 0 431 -147q97 -105 97 -258q0 -60 -15 -129q-43 -197 -194 -342q-204 -196 -438 -196q-160 0 -267 92l-18 -80q-27 -114 -73 -173
q-76 -97 -189 -97q-117 0 -148 94q-12 36 -12 80t12 96h15zM597 467q65 -129 217 -129q147 0 269 114q116 108 166 322q14 60 14 114q0 93 -40 169q-79 153 -303 153q-79 0 -155 -16z" />
    <glyph glyph-name="germandbls" unicode="&#xdf;" horiz-adv-x="1304" 
d="M88 250h15q6 -123 82 -123q84 0 112 122l219 946q39 168 192 263q116 72 269 72q158 0 239 -71q93 -82 93 -195q0 -33 -8 -69q-32 -144 -158 -231q-101 -70 -222 -100q176 -17 271 -121q76 -83 76 -201q0 -47 -12 -100q-48 -214 -245 -342q-184 -120 -467 -120l95 116
q110 0 239 84q125 82 165 257q12 53 12 103q0 92 -50 163q-76 108 -247 153l3 15q152 52 238 128t112 193q9 41 9 74q0 62 -32 102q-48 60 -127 60q-84 0 -153 -59q-65 -55 -92 -173l-219 -947q-26 -113 -72 -172q-76 -97 -189 -97q-116 0 -148 94q-12 36 -12 80t12 96z" />
    <glyph glyph-name="agrave" unicode="&#xe0;" 
d="M898 1192l-25 -22l-248 166q-33 23 -33 64q0 13 3 28q7 36 42 69t85 33q58 0 78 -55zM1298 250q-24 -104 -82 -176q-76 -94 -192 -94q-107 0 -143 97q-6 16 -8 42q-38 -42 -76 -73q-79 -66 -190 -66q-175 0 -270 136q-80 114 -80 268q0 77 20 166q63 267 260 434
q160 136 334 136q106 0 161 -72q20 -26 27 -55l25 107h200l-196 -850q-7 -32 -7 -55q0 -68 62 -68q76 0 140 123h15zM989 690q15 66 15 119t-15 95q-36 102 -143 102q-121 0 -211 -116q-85 -109 -138 -340q-33 -144 -33 -239q0 -61 14 -101q41 -116 158 -116q101 0 188 100
q69 79 101 216z" />
    <glyph glyph-name="aacute" unicode="&#xe1;" 
d="M879 1170l-15 22l230 283q44 55 102 55q48 0 71 -33q13 -19 13 -44q0 -12 -3 -25q-14 -62 -74 -92zM1298 250q-24 -104 -82 -176q-76 -94 -192 -94q-107 0 -143 97q-6 16 -8 42q-38 -42 -76 -73q-79 -66 -190 -66q-175 0 -270 136q-80 114 -80 268q0 77 20 166
q63 267 260 434q160 136 334 136q106 0 161 -72q20 -26 27 -55l25 107h200l-196 -850q-7 -32 -7 -55q0 -68 62 -68q76 0 140 123h15zM989 690q15 66 15 119t-15 95q-36 102 -143 102q-121 0 -211 -116q-85 -109 -138 -340q-33 -144 -33 -239q0 -61 14 -101q41 -116 158 -116
q101 0 188 100q69 79 101 216z" />
    <glyph glyph-name="acircumflex" unicode="&#xe2;" 
d="M914 1530h120l135 -282h-134q-60 48 -94 138q-72 -85 -158 -138h-134zM1298 250q-24 -104 -82 -176q-76 -94 -192 -94q-107 0 -143 97q-6 16 -8 42q-38 -42 -76 -73q-79 -66 -190 -66q-175 0 -270 136q-80 114 -80 268q0 77 20 166q63 267 260 434q160 136 334 136
q106 0 161 -72q20 -26 27 -55l25 107h200l-196 -850q-7 -32 -7 -55q0 -68 62 -68q76 0 140 123h15zM989 690q15 66 15 119t-15 95q-36 102 -143 102q-121 0 -211 -116q-85 -109 -138 -340q-33 -144 -33 -239q0 -61 14 -101q41 -116 158 -116q101 0 188 100q69 79 101 216z
" />
    <glyph glyph-name="atilde" unicode="&#xe3;" 
d="M643 1239q71 241 209 241q57 0 104 -36l66 -51q30 -23 57 -23q61 0 169 110q-71 -241 -209 -241q-57 0 -103 36l-67 51q-29 23 -56 23q-61 0 -170 -110zM1298 250q-24 -104 -82 -176q-76 -94 -192 -94q-107 0 -143 97q-6 16 -8 42q-38 -42 -76 -73q-79 -66 -190 -66
q-175 0 -270 136q-80 114 -80 268q0 77 20 166q63 267 260 434q160 136 334 136q106 0 161 -72q20 -26 27 -55l25 107h200l-196 -850q-7 -32 -7 -55q0 -68 62 -68q76 0 140 123h15zM989 690q15 66 15 119t-15 95q-36 102 -143 102q-121 0 -211 -116q-85 -109 -138 -340
q-33 -144 -33 -239q0 -61 14 -101q41 -116 158 -116q101 0 188 100q69 79 101 216z" />
    <glyph glyph-name="adieresis" unicode="&#xe4;" 
d="M961 1366q0 15 4 32q13 56 60 94t100 38t83 -38q21 -27 21 -62q0 -15 -4 -32q-13 -56 -60 -94t-101 -38q-55 0 -83 38q-20 27 -20 62zM624 1366q0 15 4 32q13 56 60 94t100 38q54 0 83 -38q20 -26 20 -61q0 -16 -4 -33q-13 -56 -59 -94q-47 -38 -101 -38t-83 38
q-20 27 -20 62zM1298 250q-24 -104 -82 -176q-76 -94 -192 -94q-107 0 -143 97q-6 16 -8 42q-38 -42 -76 -73q-79 -66 -190 -66q-175 0 -270 136q-80 114 -80 268q0 77 20 166q63 267 260 434q160 136 334 136q106 0 161 -72q20 -26 27 -55l25 107h200l-196 -850
q-7 -32 -7 -55q0 -68 62 -68q76 0 140 123h15zM989 690q15 66 15 119t-15 95q-36 102 -143 102q-121 0 -211 -116q-85 -109 -138 -340q-33 -144 -33 -239q0 -61 14 -101q41 -116 158 -116q101 0 188 100q69 79 101 216z" />
    <glyph glyph-name="aring" unicode="&#xe5;" 
d="M956 1484q-36 0 -66 -26q-29 -25 -39 -64q-3 -12 -3 -23q0 -23 13 -41q19 -26 53 -26q36 0 67 26q33 28 40 64q2 11 2 21q0 24 -13 43q-19 26 -54 26zM974 1570q74 0 112 -51q27 -36 27 -84q0 -20 -5 -43q-16 -74 -80 -127q-63 -52 -136 -52t-112 52q-27 36 -27 84
q0 20 5 43q16 73 80 126q63 52 136 52zM1298 250q-24 -104 -82 -176q-76 -94 -192 -94q-107 0 -143 97q-6 16 -8 42q-38 -42 -76 -73q-79 -66 -190 -66q-175 0 -270 136q-80 114 -80 268q0 77 20 166q63 267 260 434q160 136 334 136q106 0 161 -72q20 -26 27 -55l25 107
h200l-196 -850q-7 -32 -7 -55q0 -68 62 -68q76 0 140 123h15zM989 690q15 66 15 119t-15 95q-36 102 -143 102q-121 0 -211 -116q-85 -109 -138 -340q-33 -144 -33 -239q0 -61 14 -101q41 -116 158 -116q101 0 188 100q69 79 101 216z" />
    <glyph glyph-name="ae" unicode="&#xe6;" horiz-adv-x="1825" 
d="M1778 358q-72 -151 -167 -239q-150 -139 -321 -139q-98 0 -172 28q-51 -28 -114 -28q-107 0 -143 97q-6 16 -8 42q-38 -42 -76 -73q-79 -66 -190 -66q-175 0 -270 136q-80 114 -80 268q0 77 20 166q63 267 260 434q160 136 334 136q106 0 161 -72q20 -26 27 -55l25 107
h200l-15 -64q134 84 289 84q157 0 239 -104q56 -71 56 -165q0 -40 -10 -83q-35 -151 -163 -262q-190 -165 -557 -167q0 -72 15 -129q32 -120 197 -120q106 0 205 97q65 64 117 171h141zM1110 410q248 8 390 147q102 100 128 209q15 63 15 110q0 31 -8 59q-23 79 -121 79
q-143 0 -239 -124q-85 -110 -138 -340q-22 -96 -27 -140zM969 690q15 66 15 119t-15 95q-36 102 -143 102q-121 0 -211 -116q-85 -109 -138 -340q-33 -144 -33 -239q0 -61 14 -101q41 -116 158 -116q101 0 188 100q69 79 101 216z" />
    <glyph glyph-name="ccedilla" unicode="&#xe7;" horiz-adv-x="1165" 
d="M1118 358q-72 -152 -167 -239q-115 -106 -243 -131q32 -47 32 -103q0 -24 -6 -51q-24 -106 -104 -171q-92 -75 -205 -93l-43 172q95 0 145 34t62 84q5 21 5 42q0 41 -18 80q-175 16 -259 134q-80 112 -80 267q0 77 20 167q64 273 260 434q166 136 365 136q170 0 257 -138
q53 -84 53 -166q0 -28 -6 -56q-14 -66 -62 -104t-101 -38t-84 38q-21 26 -21 60q0 15 4 31q14 55 59 91q32 26 74 35q-37 141 -201 141q-136 0 -239 -124q-84 -101 -138 -340q-33 -146 -33 -239q0 -61 14 -101q42 -120 197 -120q106 0 205 97q65 64 117 171h141z" />
    <glyph glyph-name="egrave" unicode="&#xe8;" horiz-adv-x="1165" 
d="M878 1192l-25 -22l-248 166q-33 23 -33 64q0 13 3 28q7 36 42 69t85 33q58 0 78 -55zM1118 358q-72 -151 -167 -239q-151 -139 -321 -139q-218 0 -313 136q-80 114 -80 268q0 78 20 166q62 270 260 434q163 136 361 136q157 0 239 -104q56 -71 56 -165q0 -40 -10 -83
q-35 -151 -163 -262q-190 -165 -557 -167q0 -72 15 -129q32 -120 197 -120q106 0 205 97q65 64 117 171h141zM450 410q248 8 390 147q102 100 128 209q15 63 15 110q0 31 -8 59q-23 79 -121 79q-143 0 -239 -124q-85 -110 -138 -340q-22 -96 -27 -140z" />
    <glyph glyph-name="eacute" unicode="&#xe9;" horiz-adv-x="1165" 
d="M859 1170l-15 22l230 283q44 55 102 55q48 0 71 -33q13 -19 13 -44q0 -12 -3 -25q-14 -62 -74 -92zM1118 358q-72 -151 -167 -239q-151 -139 -321 -139q-218 0 -313 136q-80 114 -80 268q0 78 20 166q62 270 260 434q163 136 361 136q157 0 239 -104q56 -71 56 -165
q0 -40 -10 -83q-35 -151 -163 -262q-190 -165 -557 -167q0 -72 15 -129q32 -120 197 -120q106 0 205 97q65 64 117 171h141zM450 410q248 8 390 147q102 100 128 209q15 63 15 110q0 31 -8 59q-23 79 -121 79q-143 0 -239 -124q-85 -110 -138 -340q-22 -96 -27 -140z" />
    <glyph glyph-name="ecircumflex" unicode="&#xea;" horiz-adv-x="1165" 
d="M894 1530h120l135 -282h-134q-60 48 -94 138q-72 -85 -158 -138h-134zM1118 358q-72 -151 -167 -239q-151 -139 -321 -139q-218 0 -313 136q-80 114 -80 268q0 78 20 166q62 270 260 434q163 136 361 136q157 0 239 -104q56 -71 56 -165q0 -40 -10 -83
q-35 -151 -163 -262q-190 -165 -557 -167q0 -72 15 -129q32 -120 197 -120q106 0 205 97q65 64 117 171h141zM450 410q248 8 390 147q102 100 128 209q15 63 15 110q0 31 -8 59q-23 79 -121 79q-143 0 -239 -124q-85 -110 -138 -340q-22 -96 -27 -140z" />
    <glyph glyph-name="edieresis" unicode="&#xeb;" horiz-adv-x="1165" 
d="M941 1366q0 15 4 32q13 56 60 94t100 38t83 -38q21 -27 21 -62q0 -15 -4 -32q-13 -56 -60 -94t-101 -38q-55 0 -83 38q-20 27 -20 62zM604 1366q0 15 4 32q13 56 60 94t100 38q54 0 83 -38q20 -26 20 -61q0 -16 -4 -33q-13 -56 -59 -94q-47 -38 -101 -38t-83 38
q-20 27 -20 62zM1118 358q-72 -151 -167 -239q-151 -139 -321 -139q-218 0 -313 136q-80 114 -80 268q0 78 20 166q62 270 260 434q163 136 361 136q157 0 239 -104q56 -71 56 -165q0 -40 -10 -83q-35 -151 -163 -262q-190 -165 -557 -167q0 -72 15 -129q32 -120 197 -120
q106 0 205 97q65 64 117 171h141zM450 410q248 8 390 147q102 100 128 209q15 63 15 110q0 31 -8 59q-23 79 -121 79q-143 0 -239 -124q-85 -110 -138 -340q-22 -96 -27 -140z" />
    <glyph glyph-name="igrave" unicode="&#xec;" horiz-adv-x="640" 
d="M642 1192l-25 -22l-248 166q-33 23 -33 64q0 13 3 28q7 36 42 69t85 33q58 0 78 -55zM688 250q-24 -104 -82 -176q-76 -94 -192 -94q-108 0 -143 97q-9 25 -9 60q0 43 16 113l138 600q7 32 7 55q0 68 -62 68q-76 0 -140 -123h-15q24 103 82 176q75 94 192 94
q108 0 143 -97q9 -25 9 -60q0 -42 -16 -112l-138 -601q-7 -32 -7 -55q0 -68 62 -68q76 0 140 123h15z" />
    <glyph glyph-name="iacute" unicode="&#xed;" horiz-adv-x="640" 
d="M476 1170l-15 22l230 283q44 55 102 55q48 0 71 -33q13 -19 13 -44q0 -12 -3 -25q-14 -62 -74 -92zM688 250q-24 -104 -82 -176q-76 -94 -192 -94q-108 0 -143 97q-9 25 -9 60q0 43 16 113l138 600q7 32 7 55q0 68 -62 68q-76 0 -140 -123h-15q24 103 82 176
q75 94 192 94q108 0 143 -97q9 -25 9 -60q0 -42 -16 -112l-138 -601q-7 -32 -7 -55q0 -68 62 -68q76 0 140 123h15z" />
    <glyph glyph-name="icircumflex" unicode="&#xee;" horiz-adv-x="640" 
d="M575 1530h120l135 -282h-134q-60 48 -94 138q-72 -85 -158 -138h-134zM688 250q-24 -104 -82 -176q-76 -94 -192 -94q-108 0 -143 97q-9 25 -9 60q0 43 16 113l138 600q7 32 7 55q0 68 -62 68q-76 0 -140 -123h-15q24 103 82 176q75 94 192 94q108 0 143 -97q9 -25 9 -60
q0 -42 -16 -112l-138 -601q-7 -32 -7 -55q0 -68 62 -68q76 0 140 123h15z" />
    <glyph glyph-name="idieresis" unicode="&#xef;" horiz-adv-x="640" 
d="M670 1366q0 15 4 32q13 56 60 94t100 38t83 -38q21 -27 21 -62q0 -15 -4 -32q-13 -56 -60 -94t-101 -38q-55 0 -83 38q-20 27 -20 62zM333 1366q0 15 4 32q13 56 60 94t100 38q54 0 83 -38q20 -26 20 -61q0 -16 -4 -33q-13 -56 -59 -94q-47 -38 -101 -38t-83 38
q-20 27 -20 62zM688 250q-24 -104 -82 -176q-76 -94 -192 -94q-108 0 -143 97q-9 25 -9 60q0 43 16 113l138 600q7 32 7 55q0 68 -62 68q-76 0 -140 -123h-15q24 103 82 176q75 94 192 94q108 0 143 -97q9 -25 9 -60q0 -42 -16 -112l-138 -601q-7 -32 -7 -55q0 -68 62 -68
q76 0 140 123h15z" />
    <glyph glyph-name="eth" unicode="&#xf0;" horiz-adv-x="1277" 
d="M622 1260q23 98 69 170q64 100 205 100q183 0 300 -181l215 108l32 -88l-203 -102q45 -110 45 -250q0 -121 -33 -262l-70 -305q-44 -190 -212 -333q-161 -137 -361 -137q-201 0 -297 137q-71 101 -71 223q0 53 13 110q43 189 212 333q161 137 360 137q143 0 245 -121
q17 92 17 181q0 100 -22 199l-216 -107l-25 95l214 102q-67 152 -196 152q-108 0 -206 -161h-15zM634 86q127 0 218 122q80 107 110 242q17 76 17 134q0 60 -15 108q-36 122 -162 122t-218 -122q-76 -102 -110 -242q-17 -71 -17 -133q0 -59 15 -109q35 -122 162 -122z" />
    <glyph glyph-name="ntilde" unicode="&#xf1;" horiz-adv-x="1270" 
d="M643 1239q71 241 209 241q57 0 104 -36l66 -51q30 -23 57 -23q61 0 169 110q-71 -241 -209 -241q-57 0 -103 36l-67 51q-29 23 -56 23q-61 0 -170 -110zM220 0l196 850q7 32 7 55q0 68 -62 68q-76 0 -140 -123h-15q24 103 82 176q75 94 192 94q108 0 143 -97q9 -25 9 -60
q0 -12 -1 -20q38 50 91 91q111 86 247 86q165 0 230 -139q29 -62 29 -144q0 -68 -19 -147l-101 -440q-7 -32 -7 -55q0 -68 62 -68q76 0 140 123h15q-24 -104 -82 -176q-76 -94 -192 -94q-109 0 -143 97q-9 26 -9 62q0 45 15 110l103 443q17 72 17 124q0 28 -7 58
q-26 105 -144 105q-111 0 -189 -81t-108 -208l-159 -690h-200z" />
    <glyph glyph-name="ograve" unicode="&#xf2;" horiz-adv-x="1188" 
d="M878 1192l-25 -22l-248 166q-33 23 -33 64q0 13 3 28q7 36 42 69t85 33q58 0 78 -55zM589 -20q-177 0 -272 136q-80 114 -80 268q0 77 20 166q64 273 260 434q165 136 336 136q175 0 272 -136q80 -112 80 -267q0 -77 -20 -167q-62 -267 -260 -434q-161 -136 -336 -136z
M826 1006q-121 0 -211 -116q-85 -110 -138 -340q-33 -144 -33 -239q0 -61 14 -101q41 -116 158 -116t210 116q87 109 139 340q32 142 32 236q0 63 -14 104q-40 116 -157 116z" />
    <glyph glyph-name="oacute" unicode="&#xf3;" horiz-adv-x="1188" 
d="M859 1170l-15 22l230 283q44 55 102 55q48 0 71 -33q13 -19 13 -44q0 -12 -3 -25q-14 -62 -74 -92zM589 -20q-177 0 -272 136q-80 114 -80 268q0 77 20 166q64 273 260 434q165 136 336 136q175 0 272 -136q80 -112 80 -267q0 -77 -20 -167q-62 -267 -260 -434
q-161 -136 -336 -136zM826 1006q-121 0 -211 -116q-85 -110 -138 -340q-33 -144 -33 -239q0 -61 14 -101q41 -116 158 -116t210 116q87 109 139 340q32 142 32 236q0 63 -14 104q-40 116 -157 116z" />
    <glyph glyph-name="ocircumflex" unicode="&#xf4;" horiz-adv-x="1188" 
d="M894 1530h120l135 -282h-134q-60 48 -94 138q-72 -85 -158 -138h-134zM589 -20q-177 0 -272 136q-80 114 -80 268q0 77 20 166q64 273 260 434q165 136 336 136q175 0 272 -136q80 -112 80 -267q0 -77 -20 -167q-62 -267 -260 -434q-161 -136 -336 -136zM826 1006
q-121 0 -211 -116q-85 -110 -138 -340q-33 -144 -33 -239q0 -61 14 -101q41 -116 158 -116t210 116q87 109 139 340q32 142 32 236q0 63 -14 104q-40 116 -157 116z" />
    <glyph glyph-name="otilde" unicode="&#xf5;" horiz-adv-x="1188" 
d="M623 1239q71 241 209 241q57 0 104 -36l66 -51q30 -23 57 -23q61 0 169 110q-71 -241 -209 -241q-57 0 -103 36l-67 51q-29 23 -56 23q-61 0 -170 -110zM589 -20q-177 0 -272 136q-80 114 -80 268q0 77 20 166q64 273 260 434q165 136 336 136q175 0 272 -136
q80 -112 80 -267q0 -77 -20 -167q-62 -267 -260 -434q-161 -136 -336 -136zM826 1006q-121 0 -211 -116q-85 -110 -138 -340q-33 -144 -33 -239q0 -61 14 -101q41 -116 158 -116t210 116q87 109 139 340q32 142 32 236q0 63 -14 104q-40 116 -157 116z" />
    <glyph glyph-name="odieresis" unicode="&#xf6;" horiz-adv-x="1188" 
d="M941 1366q0 15 4 32q13 56 60 94t100 38t83 -38q21 -27 21 -62q0 -15 -4 -32q-13 -56 -60 -94t-101 -38q-55 0 -83 38q-20 27 -20 62zM604 1366q0 15 4 32q13 56 60 94t100 38q54 0 83 -38q20 -26 20 -61q0 -16 -4 -33q-13 -56 -59 -94q-47 -38 -101 -38t-83 38
q-20 27 -20 62zM589 -20q-177 0 -272 136q-80 114 -80 268q0 77 20 166q64 273 260 434q165 136 336 136q175 0 272 -136q80 -112 80 -267q0 -77 -20 -167q-62 -267 -260 -434q-161 -136 -336 -136zM826 1006q-121 0 -211 -116q-85 -110 -138 -340q-33 -144 -33 -239
q0 -61 14 -101q41 -116 158 -116t210 116q87 109 139 340q32 142 32 236q0 63 -14 104q-40 116 -157 116z" />
    <glyph glyph-name="divide" unicode="&#xf7;" horiz-adv-x="1233" 
d="M794 1168q48 39 101 39q54 0 83 -39q20 -27 20 -61q0 -15 -4 -32q-13 -55 -59 -93q-47 -39 -101 -39q-53 0 -83 39q-20 25 -20 61q0 17 4 32q15 58 59 93zM645 524q46 38 101 38t83 -38q20 -27 20 -61q0 -16 -4 -33q-13 -56 -59 -94q-47 -38 -101 -38q-56 0 -83 38
q-20 28 -20 62q0 15 4 32q13 56 59 94zM392 830h833l-35 -150h-833z" />
    <glyph glyph-name="oslash" unicode="&#xf8;" horiz-adv-x="1188" 
d="M489 151q44 -57 127 -57q119 0 210 116q85 108 139 340q33 142 33 237q0 23 -2 43zM301 -100l-92 48l116 156q-88 124 -88 285q0 76 20 161q60 267 260 434q162 136 336 136q110 0 190 -55l100 135l93 -49l-118 -157q88 -113 88 -274q0 -79 -21 -170q-62 -268 -260 -434
q-162 -136 -336 -136q-110 0 -188 53zM955 947q-45 59 -129 59q-121 0 -211 -116q-86 -111 -138 -340q-32 -140 -32 -235q0 -25 2 -48z" />
    <glyph glyph-name="ugrave" unicode="&#xf9;" horiz-adv-x="1270" 
d="M898 1192l-25 -22l-248 166q-33 23 -33 64q0 13 3 28q7 36 42 69t85 33q58 0 78 -55zM1318 250q-24 -104 -82 -176q-76 -94 -192 -94q-108 0 -143 97q-9 25 -9 60q0 12 1 20q-40 -50 -91 -91q-109 -86 -247 -86q-167 0 -231 139q-28 61 -28 143q0 67 19 148l101 440
q7 32 7 55q0 68 -62 68q-76 0 -140 -123h-15q24 103 82 176q75 94 192 94q108 0 143 -97q9 -25 9 -60q0 -43 -16 -112l-102 -443q-17 -72 -17 -124q0 -33 7 -58q26 -105 144 -105q111 0 189 81t108 208l159 690h200l-196 -850q-7 -32 -7 -55q0 -68 62 -68q76 0 140 123h15z
" />
    <glyph glyph-name="uacute" unicode="&#xfa;" horiz-adv-x="1270" 
d="M779 1170l-15 22l230 283q44 55 102 55q48 0 71 -33q13 -19 13 -44q0 -12 -3 -25q-14 -62 -74 -92zM1318 250q-24 -104 -82 -176q-76 -94 -192 -94q-108 0 -143 97q-9 25 -9 60q0 12 1 20q-40 -50 -91 -91q-109 -86 -247 -86q-167 0 -231 139q-28 61 -28 143q0 67 19 148
l101 440q7 32 7 55q0 68 -62 68q-76 0 -140 -123h-15q24 103 82 176q75 94 192 94q108 0 143 -97q9 -25 9 -60q0 -43 -16 -112l-102 -443q-17 -72 -17 -124q0 -33 7 -58q26 -105 144 -105q111 0 189 81t108 208l159 690h200l-196 -850q-7 -32 -7 -55q0 -68 62 -68
q76 0 140 123h15z" />
    <glyph glyph-name="ucircumflex" unicode="&#xfb;" horiz-adv-x="1270" 
d="M914 1530h120l135 -282h-134q-60 48 -94 138q-72 -85 -158 -138h-134zM1318 250q-24 -104 -82 -176q-76 -94 -192 -94q-108 0 -143 97q-9 25 -9 60q0 12 1 20q-40 -50 -91 -91q-109 -86 -247 -86q-167 0 -231 139q-28 61 -28 143q0 67 19 148l101 440q7 32 7 55
q0 68 -62 68q-76 0 -140 -123h-15q24 103 82 176q75 94 192 94q108 0 143 -97q9 -25 9 -60q0 -43 -16 -112l-102 -443q-17 -72 -17 -124q0 -33 7 -58q26 -105 144 -105q111 0 189 81t108 208l159 690h200l-196 -850q-7 -32 -7 -55q0 -68 62 -68q76 0 140 123h15z" />
    <glyph glyph-name="udieresis" unicode="&#xfc;" horiz-adv-x="1270" 
d="M911 1366q0 15 4 32q13 56 60 94t100 38t83 -38q21 -27 21 -62q0 -15 -4 -32q-13 -56 -60 -94t-101 -38q-55 0 -83 38q-20 27 -20 62zM574 1366q0 15 4 32q13 56 60 94t100 38q54 0 83 -38q20 -26 20 -61q0 -16 -4 -33q-13 -56 -59 -94q-47 -38 -101 -38t-83 38
q-20 27 -20 62zM1318 250q-24 -104 -82 -176q-76 -94 -192 -94q-108 0 -143 97q-9 25 -9 60q0 12 1 20q-40 -50 -91 -91q-109 -86 -247 -86q-167 0 -231 139q-28 61 -28 143q0 67 19 148l101 440q7 32 7 55q0 68 -62 68q-76 0 -140 -123h-15q24 103 82 176q75 94 192 94
q108 0 143 -97q9 -25 9 -60q0 -43 -16 -112l-102 -443q-17 -72 -17 -124q0 -33 7 -58q26 -105 144 -105q111 0 189 81t108 208l159 690h200l-196 -850q-7 -32 -7 -55q0 -68 62 -68q76 0 140 123h15z" />
    <glyph glyph-name="yacute" unicode="&#xfd;" horiz-adv-x="1230" 
d="M779 1170l-15 22l230 283q44 55 102 55q48 0 71 -33q13 -19 13 -44q0 -12 -3 -25q-14 -62 -74 -92zM1304 1100l-231 -1000q-57 -247 -241 -402q-152 -128 -369 -128q-127 0 -214 63q-68 49 -68 118q0 18 4 37q14 55 60 94q45 38 101 38q52 0 83 -37q21 -25 21 -60
q0 -13 -4 -33q-14 -54 -71 -105q36 -20 108 -20q128 0 242 97q87 74 121 222l37 159q-29 -36 -81 -77q-109 -86 -247 -86q-167 0 -231 139q-28 61 -28 143q0 67 19 148l101 440q7 32 7 55q0 68 -62 68q-76 0 -140 -123h-15q24 103 82 176q75 94 192 94q108 0 143 -97
q9 -25 9 -60q0 -43 -16 -112l-102 -443q-17 -72 -17 -124q0 -32 7 -58q26 -105 144 -105q111 0 189 81t108 208l159 690h200z" />
    <glyph glyph-name="thorn" unicode="&#xfe;" 
d="M301 1260q24 103 82 176q75 94 191 94q112 0 144 -97q8 -24 8 -59q0 -49 -15 -114l-59 -257q28 29 55 51q81 66 190 66q175 0 270 -136q80 -114 80 -275q0 -74 -20 -159q-63 -267 -260 -434q-160 -136 -334 -136q-106 0 -161 72q-20 26 -27 55l-120 -517h-200l386 1670
q7 30 7 54q0 69 -63 69q-76 0 -139 -123h-15zM579 690l-64 -280q-15 -66 -15 -119t15 -95q36 -102 143 -102q118 0 210 116q86 109 139 340q32 140 32 235q0 61 -14 105q-40 116 -157 116q-103 0 -188 -100q-71 -84 -101 -216z" />
    <glyph glyph-name="ydieresis" unicode="&#xff;" horiz-adv-x="1230" 
d="M911 1366q0 15 4 32q13 56 60 94t100 38t83 -38q21 -27 21 -62q0 -15 -4 -32q-13 -56 -60 -94t-101 -38q-55 0 -83 38q-20 27 -20 62zM574 1366q0 15 4 32q13 56 60 94t100 38q54 0 83 -38q20 -26 20 -61q0 -16 -4 -33q-13 -56 -59 -94q-47 -38 -101 -38t-83 38
q-20 27 -20 62zM1304 1100l-231 -1000q-57 -247 -241 -402q-152 -128 -369 -128q-127 0 -214 63q-68 49 -68 118q0 18 4 37q14 55 60 94q45 38 101 38q52 0 83 -37q21 -25 21 -60q0 -13 -4 -33q-14 -54 -71 -105q36 -20 108 -20q128 0 242 97q87 74 121 222l37 159
q-29 -36 -81 -77q-109 -86 -247 -86q-167 0 -231 139q-28 61 -28 143q0 67 19 148l101 440q7 32 7 55q0 68 -62 68q-76 0 -140 -123h-15q24 103 82 176q75 94 192 94q108 0 143 -97q9 -25 9 -60q0 -43 -16 -112l-102 -443q-17 -72 -17 -124q0 -32 7 -58q26 -105 144 -105
q111 0 189 81t108 208l159 690h200z" />
    <glyph glyph-name="Iogonek" unicode="&#x12e;" horiz-adv-x="680" 
d="M103 250q6 -123 82 -123q84 0 113 123l291 1260h200l-291 -1260q-27 -114 -73 -173q-63 -81 -153 -94q-53 -53 -66 -109q-4 -17 -4 -33q0 -38 25 -64q34 -35 128 -35l-122 -172q-106 18 -162 93q-33 44 -33 107q0 31 8 66q21 91 107 160q-47 23 -65 78q-12 37 -12 80
q0 44 12 96h15z" />
    <glyph glyph-name="obreve" unicode="&#x14f;" horiz-adv-x="1188" 
d="M690 1530h74q27 -112 160 -112t212 112h74q-136 -262 -320 -262t-200 262zM589 -20q-177 0 -272 136q-80 114 -80 268q0 77 20 166q64 273 260 434q165 136 336 136q175 0 272 -136q80 -112 80 -267q0 -77 -20 -167q-62 -267 -260 -434q-161 -136 -336 -136zM826 1006
q-121 0 -211 -116q-85 -110 -138 -340q-33 -144 -33 -239q0 -61 14 -101q41 -116 158 -116t210 116q87 109 139 340q32 142 32 236q0 63 -14 104q-40 116 -157 116z" />
    <glyph glyph-name="Ohungarumlaut" unicode="&#x150;" horiz-adv-x="1464" 
d="M905 1590l-15 22l230 283q44 55 102 55q48 0 71 -33q13 -19 13 -44q0 -12 -3 -25q-14 -62 -74 -92zM1188 1590l-15 22l230 283q44 55 102 55q48 0 71 -33q13 -19 13 -44q0 -12 -3 -25q-14 -62 -74 -92zM1061 1425q-137 0 -266 -131q-168 -171 -253 -539
q-41 -178 -41 -311q0 -139 45 -228q66 -131 206 -131q154 0 272 130q161 177 246 540q43 184 43 318q0 138 -46 221q-73 131 -206 131zM727 -20q-209 0 -328 154q-109 141 -109 357q0 122 34 264q92 396 362 621q185 154 399 154q215 0 329 -154q106 -143 106 -360
q0 -118 -32 -261q-93 -403 -359 -616q-198 -159 -402 -159z" />
    <glyph glyph-name="OE" unicode="&#x152;" horiz-adv-x="2246" 
d="M727 -20q-209 0 -328 154q-109 141 -109 357q0 120 34 264q94 397 362 621q185 154 399 154q215 0 329 -154q48 -65 74 -145q45 132 197 228q112 71 271 71q190 0 272 -142q36 -62 36 -136q0 -36 -9 -76q-14 -63 -65 -106q-50 -42 -104 -42q-52 0 -83 38q-21 26 -21 60
q0 15 4 31q14 57 59 92t93 35q-39 148 -199 148q-77 0 -166 -63q-81 -57 -107 -177q-9 -41 -9 -77q0 -65 32 -116q48 -75 179 -128l-3 -15q-193 -45 -318 -153q-126 -109 -161 -266q-10 -45 -10 -86q0 -95 57 -171q70 -90 219 -90q159 0 290 124q112 106 164 215h139
q-91 -173 -241 -295q-189 -154 -400 -154t-342 120q-46 42 -70 94q-30 -29 -63 -55q-202 -159 -402 -159zM1061 1425q-137 0 -266 -131q-168 -171 -253 -539q-41 -178 -41 -311q0 -139 45 -228q66 -131 206 -131q154 0 272 130q161 177 246 540q43 184 43 318q0 138 -46 221
q-73 131 -206 131zM1515 1025q0 -115 -15 -213q95 42 204 52q-76 21 -148 100q-30 33 -41 61z" />
    <glyph glyph-name="oe" unicode="&#x153;" horiz-adv-x="1873" 
d="M826 1006q-121 0 -211 -116q-85 -110 -138 -340q-33 -144 -33 -239q0 -61 14 -101q41 -116 158 -116t210 116q87 109 139 340q32 142 32 236q0 63 -14 104q-40 116 -157 116zM589 -20q-177 0 -272 136q-80 114 -80 268q0 77 20 166q64 273 260 434q165 136 336 136
q178 0 272 -136q20 -29 36 -60q30 32 64 60q165 136 361 136q157 0 239 -104q56 -71 56 -165q0 -40 -10 -83q-35 -151 -163 -262q-190 -165 -557 -167q0 -72 15 -129q32 -120 197 -120q106 0 205 97q65 64 117 171h141q-72 -151 -167 -239q-150 -139 -321 -139
q-219 0 -313 136q-20 29 -36 61q-30 -32 -64 -61q-159 -136 -336 -136zM1158 410q248 8 390 147q102 100 128 209q15 63 15 110q0 31 -8 59q-23 79 -121 79q-143 0 -239 -124q-85 -110 -138 -340q-22 -96 -27 -140z" />
    <glyph glyph-name="Scaron" unicode="&#x160;" horiz-adv-x="1346" 
d="M1073 1668h-120l-135 282h134q60 -48 94 -138q72 85 158 138h134zM298 560q48 39 101 39q51 0 83 -39q22 -27 22 -60q0 -15 -4 -30q-16 -60 -59 -90q-46 -32 -88 -32q30 -250 306 -250q209 0 330 104q103 88 135 222q7 29 7 56q0 141 -126 206l-304 156q-181 93 -181 265
q0 45 10 86q28 128 168 237q127 100 310 100q190 0 272 -142q37 -64 37 -137q0 -36 -9 -75q-14 -63 -66 -106q-50 -42 -104 -42q-52 0 -83 38q-21 26 -21 60q0 15 4 31q14 57 60 92t92 35q-35 150 -209 150q-99 0 -175 -58q-78 -59 -99 -160q-4 -19 -4 -38q0 -123 106 -176
l326 -162q201 -100 201 -287q0 -52 -14 -115q-40 -189 -248 -332q-182 -126 -445 -126q-232 0 -335 149q-70 101 -70 223q0 50 12 105q15 65 62 103z" />
    <glyph glyph-name="scaron" unicode="&#x161;" horiz-adv-x="1086" 
d="M897 1248h-120l-135 282h134q60 -48 94 -138q72 85 158 138h134zM261 444q47 38 101 38q52 0 84 -38q20 -24 20 -58q0 -16 -4 -33q-12 -51 -59 -91q-31 -26 -73 -35q45 -149 195 -149q118 0 208 55q88 54 112 150q6 24 6 45q0 107 -95 141l-205 74q-167 60 -167 220
q0 36 9 74q25 105 149 199q110 84 257 84q137 0 209 -64q95 -84 95 -174q0 -20 -5 -40q-17 -66 -62 -104q-48 -40 -102 -40q-51 0 -83 38q-21 25 -21 59q0 16 4 32q13 52 59 91q31 26 73 35q-48 65 -143 65q-104 0 -161 -42q-63 -47 -86 -137q-4 -16 -4 -30q0 -89 91 -121
l171 -60q214 -75 214 -254q0 -33 -10 -79q-25 -125 -188 -229q-133 -86 -325 -86q-189 0 -279 138q-55 84 -55 164q0 29 7 58q16 66 63 104z" />
    <glyph glyph-name="Ydieresis" unicode="&#x178;" horiz-adv-x="1420" 
d="M1093 1738q0 15 4 32q13 56 60 94t100 38t83 -38q21 -27 21 -62q0 -15 -4 -32q-13 -56 -60 -94t-101 -38q-55 0 -83 38q-20 27 -20 62zM756 1738q0 15 4 32q13 56 60 94t100 38q54 0 83 -38q20 -26 20 -61q0 -16 -4 -33q-13 -56 -59 -94q-47 -38 -101 -38t-83 38
q-20 27 -20 62zM1529 1510l-231 -1000q-58 -249 -241 -402q-153 -128 -370 -128q-184 0 -273 63q-68 48 -68 119q0 17 4 36q12 56 59 94t101 38t84 -37q20 -25 20 -60q0 -15 -4 -33q-12 -53 -70 -105q35 -20 167 -20q134 0 240 105q97 96 136 264l45 196q-32 -40 -68 -74
q-145 -136 -311 -136q-216 0 -289 189q-24 62 -24 148q0 80 26 193l69 300q7 31 7 54q0 69 -63 69q-76 0 -139 -123h-15q24 103 82 176q75 94 191 94q112 0 144 -97q8 -24 8 -59q0 -47 -15 -113l-70 -303q-25 -106 -25 -180q0 -25 4 -52q21 -154 188 -154q134 0 261 150
q79 93 113 238l127 550h200z" />
    <glyph glyph-name="zacute" unicode="&#x17a;" horiz-adv-x="1068" 
d="M750 1170l-15 22l230 283q44 55 102 55q48 0 71 -33q13 -19 13 -44q0 -12 -3 -25q-14 -62 -74 -92zM50 -6l854 970q-42 8 -99 31q-77 31 -133 31q-87 0 -140 -43q26 -38 26 -76q0 -9 -4 -29q-11 -51 -60 -93q-44 -37 -99 -37q-59 0 -85 38q-19 28 -19 62q0 14 3 30
q19 99 151 170q135 72 252 72q82 0 184 -35q61 -21 148 -21q86 0 211 56l6 -14l-846 -965q84 0 168 -36q72 -31 133 -31q87 0 140 43q-26 38 -26 76q0 9 4 29q11 51 60 93q44 37 99 37t84 -38q21 -28 21 -63q0 -10 -4 -29q-21 -100 -151 -170q-134 -72 -252 -72
q-83 0 -185 35q-64 22 -164 22q-130 0 -271 -57z" />
    <glyph glyph-name="Zcaron" unicode="&#x17d;" horiz-adv-x="1387" 
d="M1113 1668h-120l-135 282h134q60 -48 94 -138q72 85 158 138h134zM105 -20l-6 14l1136 1375q-94 0 -228 36q-115 31 -172 31q-87 0 -140 -43q24 -37 24 -76q0 -14 -3 -29q-11 -53 -59 -93q-45 -37 -100 -37t-84 38q-21 28 -21 63q0 10 4 29q21 100 152 170q133 72 256 72
q67 0 220 -35q96 -22 225 -22q119 0 270 57l7 -14l-1133 -1375q120 0 254 -36q115 -31 223 -31q87 0 140 43q-26 38 -26 76q0 10 4 29q11 51 60 93q44 37 99 37t84 -38q21 -28 21 -63q0 -10 -4 -29q-21 -100 -151 -170q-134 -72 -257 -72q-119 0 -270 35q-95 22 -254 22
q-119 0 -271 -57z" />
    <glyph glyph-name="zcaron" unicode="&#x17e;" horiz-adv-x="1068" 
d="M868 1248h-120l-135 282h134q60 -48 94 -138q72 85 158 138h134zM50 -6l854 970q-42 8 -99 31q-77 31 -133 31q-87 0 -140 -43q26 -38 26 -76q0 -9 -4 -29q-11 -51 -60 -93q-44 -37 -99 -37q-59 0 -85 38q-19 28 -19 62q0 14 3 30q19 99 151 170q135 72 252 72
q82 0 184 -35q61 -21 148 -21q86 0 211 56l6 -14l-846 -965q84 0 168 -36q72 -31 133 -31q87 0 140 43q-26 38 -26 76q0 9 4 29q11 51 60 93q44 37 99 37t84 -38q21 -28 21 -63q0 -10 -4 -29q-21 -100 -151 -170q-134 -72 -252 -72q-83 0 -185 35q-64 22 -164 22
q-130 0 -271 -57z" />
    <glyph glyph-name="florin" unicode="&#x192;" horiz-adv-x="979" 
d="M-61 -395q236 200 319 561l130 562h-170l28 122h170l26 110q68 287 206 420q156 150 343 150q139 0 212 -120q44 -72 44 -139q0 -23 -5 -45q-15 -66 -62 -104q-48 -38 -102 -38q-51 0 -83 38q-21 25 -21 59q0 16 4 32q13 52 59 91q31 26 73 35q-32 85 -140 85
q-117 0 -197 -110q-70 -96 -131 -354l-26 -110h326l-28 -122h-326l-130 -562q-106 -459 -523 -576z" />
    <glyph glyph-name="uni1E1E" unicode="&#x1e1e;" horiz-adv-x="1211" 
d="M971 1738q0 15 4 32q13 56 60 94t100 38t83 -38q21 -27 21 -62q0 -15 -4 -32q-13 -56 -60 -94t-101 -38q-55 0 -83 38q-20 27 -20 62zM103 250q6 -123 82 -123q84 0 113 123l164 710q63 274 240 434q151 136 364 136q169 0 257 -138q54 -85 54 -167q0 -29 -6 -55
q-17 -68 -62 -104q-48 -38 -102 -38q-51 0 -83 38q-21 25 -21 60q0 12 4 31q10 50 59 91q31 26 73 35q-36 141 -200 141q-137 0 -239 -124q-83 -101 -138 -340l-26 -110h356l-28 -122h-356l-110 -478q-27 -116 -73 -173q-78 -97 -189 -97q-117 0 -148 94q-12 36 -12 80
t12 96h15z" />
    <glyph glyph-name="endash" unicode="&#x2013;" horiz-adv-x="1233" 
d="M392 830h833l-35 -150h-833z" />
    <glyph glyph-name="emdash" unicode="&#x2014;" horiz-adv-x="1533" 
d="M392 830h1133l-35 -150h-1133z" />
    <glyph glyph-name="quoteleft" unicode="&#x2018;" horiz-adv-x="705" 
d="M879 1535q-98 -49 -168 -123q-36 -38 -63 -88q56 0 84 -36q20 -26 20 -60q0 -17 -4 -34q-15 -58 -60 -96q-46 -39 -103 -39q-56 0 -85 35q-24 29 -24 76q0 26 7 57q19 83 81 155q101 117 219 154q44 14 100 14z" />
    <glyph glyph-name="quoteright" unicode="&#x2019;" horiz-adv-x="705" 
d="M428 1074q94 47 168 123q36 37 64 88q-56 0 -85 36q-20 25 -20 59q0 10 5 35q15 59 59 96q46 39 103 39q55 0 86 -35q24 -27 24 -74q0 -25 -8 -59q-20 -82 -81 -155q-97 -116 -218 -154q-45 -14 -101 -14z" />
    <glyph glyph-name="quotesinglbase" unicode="&#x201a;" horiz-adv-x="705" 
d="M127 -231q94 47 168 123q36 37 63 88q-56 0 -84 36q-20 26 -20 60q0 15 4 34q15 58 60 96q46 39 103 39q56 0 85 -35q24 -29 24 -76q0 -26 -7 -57q-19 -83 -81 -155q-100 -116 -219 -154q-44 -14 -100 -14z" />
    <glyph glyph-name="quotedblleft" unicode="&#x201c;" horiz-adv-x="1055" 
d="M1230 1535q-98 -49 -168 -123q-36 -38 -63 -88q56 0 84 -36q20 -26 20 -60q0 -17 -4 -34q-15 -58 -60 -96q-46 -39 -103 -39q-56 0 -85 35q-24 29 -24 76q0 26 7 57q19 83 81 155q101 117 219 154q44 14 100 14zM879 1535q-98 -49 -168 -123q-36 -38 -63 -88q56 0 84 -36
q20 -26 20 -60q0 -17 -4 -34q-15 -58 -60 -96q-46 -39 -103 -39q-56 0 -85 35q-24 29 -24 76q0 26 7 57q19 83 81 155q101 117 219 154q44 14 100 14z" />
    <glyph glyph-name="quotedblright" unicode="&#x201d;" horiz-adv-x="1055" 
d="M779 1074q94 47 168 123q36 37 64 88q-56 0 -85 36q-20 25 -20 59q0 10 5 35q15 59 59 96q46 39 103 39q55 0 86 -35q24 -27 24 -74q0 -25 -8 -59q-20 -82 -81 -155q-97 -116 -218 -154q-45 -14 -101 -14zM428 1074q94 47 168 123q36 37 64 88q-56 0 -85 36
q-20 25 -20 59q0 10 5 35q15 59 59 96q46 39 103 39q55 0 86 -35q24 -27 24 -74q0 -25 -8 -59q-20 -82 -81 -155q-97 -116 -218 -154q-45 -14 -101 -14z" />
    <glyph glyph-name="quotedblbase" unicode="&#x201e;" horiz-adv-x="1055" 
d="M478 -231q94 47 168 123q36 37 63 88q-56 0 -84 36q-20 26 -20 60q0 15 4 34q15 58 60 96q46 39 103 39q56 0 85 -35q24 -29 24 -76q0 -26 -7 -57q-19 -83 -81 -155q-100 -116 -219 -154q-44 -14 -100 -14zM127 -231q94 47 168 123q36 37 63 88q-56 0 -84 36
q-20 26 -20 60q0 15 4 34q15 58 60 96q46 39 103 39q56 0 85 -35q24 -29 24 -76q0 -26 -7 -57q-19 -83 -81 -155q-100 -116 -219 -154q-44 -14 -100 -14z" />
    <glyph glyph-name="dagger" unicode="&#x2020;" horiz-adv-x="1233" 
d="M518 0l230 996h-318l36 157h318l83 357h197l-83 -357h318l-36 -157h-318l-230 -996h-197z" />
    <glyph glyph-name="daggerdbl" unicode="&#x2021;" horiz-adv-x="1233" 
d="M518 0l83 358h-318l36 157h318l111 481h-318l36 157h318l83 357h197l-83 -357h318l-36 -157h-318l-111 -481h318l-36 -157h-318l-83 -358h-197z" />
    <glyph glyph-name="bullet" unicode="&#x2022;" horiz-adv-x="980" 
d="M367 689q0 32 8 67q27 119 131 202q105 84 225 84q121 0 186 -84q46 -59 46 -135q0 -31 -8 -67q-26 -116 -132 -202q-104 -84 -224 -84q-121 0 -186 84q-46 59 -46 135z" />
    <glyph glyph-name="ellipsis" unicode="&#x2026;" horiz-adv-x="1425" 
d="M988 80q0 15 4 32q13 55 60 94q46 38 100 38q55 0 83 -38q20 -27 20 -61q0 -16 -4 -33q-13 -56 -59 -94q-47 -38 -101 -38q-55 0 -83 38q-20 27 -20 62zM605 80q0 15 4 32q13 55 60 94q46 38 100 38q55 0 83 -38q20 -27 20 -61q0 -16 -4 -33q-13 -56 -59 -94
q-47 -38 -101 -38q-55 0 -83 38q-20 27 -20 62zM222 80q0 15 4 32q13 55 60 94q46 38 100 38q55 0 83 -38q20 -27 20 -61q0 -16 -4 -33q-13 -56 -59 -94q-47 -38 -101 -38q-55 0 -83 38q-20 27 -20 62z" />
    <glyph glyph-name="perthousand" unicode="&#x2030;" horiz-adv-x="2337" 
d="M1963 582q-64 0 -121 -67t-90 -211q-14 -61 -14 -110q0 -39 9 -69q23 -76 92 -76q70 0 124 70q61 79 92 206q15 62 15 109q0 52 -17 85q-31 63 -90 63zM1828 -20q-127 0 -198 103q-40 58 -40 139q0 45 12 96q34 145 141 246q112 106 245 106q129 0 196 -109
q38 -62 38 -144q0 -46 -12 -100q-29 -129 -140 -232q-114 -105 -242 -105zM1297 582q-64 0 -121 -67t-90 -211q-14 -61 -14 -110q0 -39 9 -69q23 -76 92 -76q70 0 124 70q61 79 92 206q15 62 15 109q0 52 -17 85q-31 63 -90 63zM1162 -20q-127 0 -198 103q-40 58 -40 139
q0 45 12 96q34 145 141 246q112 106 245 106q129 0 196 -109q38 -62 38 -144q0 -46 -12 -100q-29 -129 -140 -232q-114 -105 -242 -105zM1578 1530l122 -64l-1254 -1486l-117 70zM709 909q71 0 124 70q63 83 92 206q14 59 14 106q0 52 -17 88q-30 63 -89 63q-63 0 -121 -67
q-57 -66 -90 -211q-14 -61 -14 -111q0 -37 8 -68q20 -76 93 -76zM857 1530q127 0 196 -109q40 -63 40 -145q0 -46 -13 -99q-30 -130 -141 -232q-114 -105 -241 -105q-126 0 -198 103q-40 57 -40 139q0 44 12 96q33 144 141 246q112 106 244 106z" />
    <glyph glyph-name="guilsinglleft" unicode="&#x2039;" horiz-adv-x="826" 
d="M795 1276l67 -88l-351 -387l204 -414l-156 -131l-236 495z" />
    <glyph glyph-name="guilsinglright" unicode="&#x203a;" horiz-adv-x="826" 
d="M621 1276l235 -495l-471 -525l-68 88l352 387l-205 414z" />
    <glyph glyph-name="Euro" unicode="&#x20ac;" horiz-adv-x="1549" 
d="M1498 429q-91 -173 -241 -295q-189 -154 -399 -154t-329 154q-108 140 -108 355q0 20 1 41h-150l35 150h132q7 37 16 75q8 38 19 75h-132l34 150h150q101 243 290 396q190 154 407 154q203 0 310 -149q81 -113 81 -215q0 -28 -6 -56q-14 -65 -62 -104q-47 -38 -102 -38
q-52 0 -83 38q-21 26 -21 61q0 9 4 30q10 52 59 91q32 26 73 35q-79 201 -272 201q-160 0 -287 -136q-103 -110 -176 -308h468l-34 -150h-480q-9 -35 -18 -73q-7 -28 -17 -77h480l-35 -150h-469q-6 -58 -6 -108q0 -122 37 -192q74 -140 252 -140q145 0 276 124
q112 106 164 215h139z" />
    <glyph glyph-name="trademark" unicode="&#x2122;" horiz-adv-x="2029" 
d="M1055 910q9 -83 34 -83q3 0 9 3q19 10 40 67l191 508q-9 25 -17 28q-3 1 -5 1q-27 0 -66 -59h-33q20 84 50 120q46 55 110 55q70 0 83 -67l100 -509l335 507q45 69 105 69q57 0 66 -64q2 -14 2 -30q0 -34 -9 -71h-33q-13 83 -37 83q-4 0 -8 -3q-5 -4 -15 -19l-44 -549
q-3 -36 30 -36q32 0 65 59h33q-18 -81 -49 -120q-44 -55 -106 -55q-101 0 -101 121q0 12 1 25l26 334l-322 -490h-28l-100 520l-139 -362q-22 -57 -49 -93q-42 -55 -92 -55q-59 0 -68 59q-2 13 -2 28q0 36 10 78h33zM448 1292q164 258 393 258h152q73 0 116 -33
q34 -26 34 -67q0 -12 -3 -24q-9 -34 -36 -57q-29 -24 -61 -24q-34 0 -52 23q-19 24 -11 57q5 20 20 39q-21 1 -29 1h-154q-182 0 -345 -196zM567 910q6 -62 30 -62q26 0 38 47l102 445h130l-102 -445q-14 -61 -41 -94q-45 -56 -110 -56t-84 55q-6 17 -6 41q0 31 9 69h34z
" />
  </font>
</defs>
</svg>
